SplineFontDB: 3.0
FontName: Catastrophe
FullName: Catastrophe
FamilyName: Catastrophe
Weight: Regular
Copyright: Copyright (c) 2016, kelvin,,,
UComments: "2016-3-31: Created with FontForge (http://fontforge.org)"
Version: 001.000
ItalicAngle: 0
UnderlinePosition: -100
UnderlineWidth: 50
Ascent: 790
Descent: 210
InvalidEm: 0
LayerCount: 2
Layer: 0 0 "Back" 1
Layer: 1 0 "Fore" 0
PreferredKerning: 4
XUID: [1021 629 -1283197947 14224290]
StyleMap: 0x0000
FSType: 0
OS2Version: 0
OS2_WeightWidthSlopeOnly: 0
OS2_UseTypoMetrics: 1
CreationTime: 1459445766
ModificationTime: 1462391534
PfmFamily: 17
TTFWeight: 400
TTFWidth: 5
LineGap: 90
VLineGap: 0
OS2TypoAscent: 0
OS2TypoAOffset: 1
OS2TypoDescent: 0
OS2TypoDOffset: 1
OS2TypoLinegap: 90
OS2WinAscent: 0
OS2WinAOffset: 1
OS2WinDescent: 0
OS2WinDOffset: 1
HheadAscent: 0
HheadAOffset: 1
HheadDescent: 0
HheadDOffset: 1
OS2Vendor: 'PfEd'
Lookup: 1 0 0 "'locl' Polish kreska" { "'locl' Polish kreska-1"  } ['locl' ('DFLT' <'PLK ' > 'latn' <'PLK ' > ) ]
Lookup: 4 0 1 "'liga' Standard Ligatures lookup 0" { "'liga' Standard Ligatures lookup 0-1"  } ['liga' ('DFLT' <'dflt' > 'grek' <'dflt' > 'latn' <'dflt' > ) ]
Lookup: 260 0 0 "'mark' Mark Positioning in Latin lookup 0" { "'mark' Mark Positioning in Latin lookup 0-1"  } ['mark' ('DFLT' <'dflt' > 'latn' <'dflt' > ) ]
MarkAttachClasses: 1
DEI: 91125
LangName: 1033
Encoding: UnicodeBmp
Compacted: 1
UnicodeInterp: none
NameList: AGL For New Fonts
DisplaySize: -96
AntiAlias: 1
FitToEm: 0
WinInfo: 0 19 9
BeginPrivate: 1
BlueValues 31 [-10 0 450 460 650 660 680 680]
EndPrivate
Grid
-1000 630 m 0
 2000 630 l 1024
  Named: "numerals"
-1000 350 m 0
 2000 350 l 1024
  Named: "H-bar"
-1000 650 m 0
 2000 650 l 1024
-1000 680 m 0
 2000 680 l 1024
-1000 450 m 0
 2000 450 l 1024
EndSplineSet
AnchorClass2: "bottom" "'mark' Mark Positioning in Latin lookup 0-1" "top" "'mark' Mark Positioning in Latin lookup 0-1" 
BeginChars: 65543 382

StartChar: n
Encoding: 110 110 0
GlifName: n
Width: 575
VWidth: 0
Flags: MW
AnchorPoint: "top" 285 450 basechar 0
AnchorPoint: "bottom" 290 0 basechar 0
LayerCount: 2
Fore
SplineSet
485 110 m 25
 497 45 l 25
 565 20 l 25
 565 0 l 25
 330 0 l 25
 330 20 l 25
 388 45 l 25
 400 110 l 25
 400 260 l 2
 400 357 368 387 302 387 c 3
 250 387 206 353 185 301 c 1
 180 336 l 1
 204 404 254 460 344 460 c 3
 437 460 485 417 485 270 c 2
 485 110 l 25
30 445 m 1
 195 455 l 25
 180 336 l 1
 185 301 l 1
 185 110 l 1
 197 45 l 25
 255 20 l 25
 255 0 l 25
 20 0 l 25
 20 20 l 25
 88 45 l 25
 100 110 l 25
 100 330 l 25
 85 400 l 1
 30 425 l 25
 30 445 l 1
EndSplineSet
Validated: 5
EndChar

StartChar: e
Encoding: 101 101 1
GlifName: e
Width: 440
VWidth: 0
Flags: HMW
AnchorPoint: "bottom" 230 0 basechar 0
AnchorPoint: "top" 230 450 basechar 0
LayerCount: 2
Back
SplineSet
232 460 m 7
 347 460 400 389 400 287 c 5
 398 258 l 5
 130 258 l 5
 130 293 l 5
 237 293 l 5
 307 303 l 5
 307 374 293 417 225 417 c 7
 156 417 130 344 130 279 c 7
 130 129 176 54 271 54 c 7
 311 54 363 65 391 91 c 5
 405 78 l 5
 365 23 313 -10 238 -10 c 7
 101 -10 35 83 35 220 c 7
 35 357 105 460 232 460 c 7
238 -10 m 3
 85 -10 30 83 30 220 c 3
 30 357 95 460 232 460 c 3
 385 460 440 367 440 230 c 3
 440 93 375 -10 238 -10 c 3
EndSplineSet
Fore
SplineSet
305 310 m 1
 305 381 273 417 220 417 c 3
 171 417 130 375 130 255 c 3
 130 120 186 54 271 54 c 3
 311 54 347 59 380 80 c 1
 395 60 l 1
 355 15 313 -10 238 -10 c 3
 101 -10 35 83 35 220 c 3
 35 357 105 460 232 460 c 3
 347 460 400 390 400 295 c 1
 395 240 l 1
 130 240 l 1
 130 275 l 1
 300 275 l 1
 305 310 l 1
EndSplineSet
EndChar

StartChar: o
Encoding: 111 111 2
GlifName: o
Width: 510
VWidth: 0
Flags: HMW
AnchorPoint: "top" 250 450 basechar 0
AnchorPoint: "bottom" 262 0 basechar 0
LayerCount: 2
Back
SplineSet
245 415 m 7
 166 415 135 343 135 232 c 7
 135 111 173 35 265 35 c 7
 344 35 375 107 375 218 c 7
 375 339 337 415 245 415 c 7
258 -10 m 7
 110 -10 35 83 35 220 c 7
 35 357 120 460 252 460 c 7
 400 460 475 367 475 230 c 7
 475 93 390 -10 258 -10 c 7
EndSplineSet
Fore
SplineSet
250 415 m 3
 165 415 135 340 135 230 c 3
 135 110 175 35 260 35 c 3
 345 35 375 110 375 220 c 3
 375 340 335 415 250 415 c 3
258 -10 m 3
 108 -10 35 85 35 220 c 3
 35 355 117 460 252 460 c 3
 402 460 475 365 475 230 c 3
 475 95 393 -10 258 -10 c 3
EndSplineSet
Validated: 1
EndChar

StartChar: p
Encoding: 112 112 3
GlifName: p
Width: 520
VWidth: 0
Flags: MW
LayerCount: 2
Fore
SplineSet
322 460 m 3
 420 460 485 384 485 245 c 3
 485 108 404 -5 263 -5 c 3
 218 -5 192 1 165 11 c 9
 170 55 l 17
 193 45 218 40 255 40 c 3
 333 40 395 83 395 223 c 3
 395 335 351 387 280 387 c 3
 234 387 191 353 170 301 c 1
 165 336 l 1
 189 404 235 460 322 460 c 3
180 455 m 25
 165 336 l 1
 170 301 l 1
 170 55 l 1
 165 11 l 1
 170 -95 l 1
 185 -165 l 1
 255 -190 l 25
 255 -210 l 25
 15 -210 l 25
 15 -190 l 25
 70 -165 l 1
 85 -95 l 25
 85 330 l 1
 70 400 l 1
 15 425 l 25
 15 445 l 1
 180 455 l 25
EndSplineSet
Validated: 5
EndChar

StartChar: i
Encoding: 105 105 5
GlifName: i
Width: 275
VWidth: 0
Flags: HMW
LayerCount: 2
Fore
SplineSet
70 620 m 7
 70 655 95 680 130 680 c 7
 165 680 190 655 190 620 c 7
 190 585 165 560 130 560 c 7
 95 560 70 585 70 620 c 7
EndSplineSet
Refer: 202 305 N 1 0 0 1 0 0 2
Validated: 1
EndChar

StartChar: d
Encoding: 100 100 6
GlifName: d
Width: 535
VWidth: 0
Flags: HMW
AnchorPoint: "bottom" 275 0 basechar 0
AnchorPoint: "top" 380 670 basechar 0
LayerCount: 2
Fore
SplineSet
125 227 m 3
 125 115 174 58 245 58 c 3
 302 58 329 86 355 119 c 1
 360 84 l 1
 336 36 298 -10 203 -10 c 3
 105 -10 35 66 35 205 c 3
 35 342 111 455 247 455 c 3
 297 455 333 444 360 429 c 9
 355 380 l 17
 332 399 302 410 265 410 c 3
 187 410 125 367 125 227 c 3
440 560 m 9
 440 130 l 1
 455 60 l 1
 520 45 l 25
 520 25 l 1
 352 -10 l 25
 360 84 l 1
 355 119 l 1
 355 380 l 1
 360 429 l 1
 355 555 l 1
 340 625 l 1
 285 640 l 25
 285 660 l 1
 450 680 l 1
 440 560 l 9
EndSplineSet
Validated: 5
EndChar

StartChar: t
Encoding: 116 116 7
GlifName: t
Width: 345
VWidth: 0
Flags: HMW
AnchorPoint: "top" 175 450 basechar 0
AnchorPoint: "bottom" 182 0 basechar 0
LayerCount: 2
Fore
SplineSet
175 555 m 1
 175 450 l 1
 318 450 l 1
 318 400 l 1
 175 400 l 1
 175 173 l 2
 175 87 192 57 235 57 c 7
 262 57 297 64 311 73 c 5
 325 60 l 5
 306 25 251 -10 195 -10 c 7
 108 -10 90 46 90 133 c 2
 90 400 l 1
 5 400 l 1
 5 415 l 1
 160 555 l 1
 175 555 l 1
EndSplineSet
Validated: 1
EndChar

StartChar: l
Encoding: 108 108 8
GlifName: l
Width: 270
VWidth: 0
Flags: HMW
AnchorPoint: "top" 135 670 basechar 0
AnchorPoint: "bottom" 142 0 basechar 0
LayerCount: 2
Fore
SplineSet
95 555 m 25
 80 625 l 1
 15 640 l 25
 15 660 l 1
 190 680 l 1
 180 560 l 1
 180 115 l 1
 195 45 l 25
 255 20 l 25
 255 0 l 25
 15 0 l 25
 15 20 l 25
 80 45 l 25
 95 115 l 1
 95 555 l 25
EndSplineSet
Validated: 1
EndChar

StartChar: c
Encoding: 99 99 9
GlifName: c
Width: 440
VWidth: 0
Flags: HMW
AnchorPoint: "top" 240 450 basechar 0
AnchorPoint: "bottom" 240 0 basechar 0
LayerCount: 2
Back
SplineSet
320 400 m 1
 300 410 285 417 250 417 c 3
 160 417 130 333 130 258 c 3
 130 113 185 55 280 55 c 3
 320 55 366 68 396 93 c 1
 410 80 l 1
 370 25 315 -10 240 -10 c 3
 105 -10 35 80 35 220 c 3
 35 360 125 460 250 460 c 3
 325 460 370 440 390 425 c 1
 390 310 l 1
 340 305 l 1
 320 400 l 1
EndSplineSet
Fore
SplineSet
320 390 m 1
 305 405 280 417 245 417 c 3
 160 417 130 323 130 248 c 3
 130 118 190 55 285 55 c 3
 325 55 345 60 380 80 c 1
 395 60 l 1
 355 20 315 -10 240 -10 c 3
 105 -10 35 80 35 220 c 3
 35 360 120 460 255 460 c 3
 330 460 370 445 390 435 c 1
 390 320 l 1
 340 315 l 1
 320 390 l 1
EndSplineSet
EndChar

StartChar: a
Encoding: 97 97 10
GlifName: a
Width: 465
VWidth: 0
Flags: HMW
AnchorPoint: "top" 220 450 basechar 0
AnchorPoint: "bottom" 225 0 basechar 0
LayerCount: 2
Back
SplineSet
220 460 m 3
 325 460 375 420 375 290 c 2
 375 130 l 17
 390 60 l 1
 455 45 l 25
 455 25 l 1
 287 -10 l 25
 295 85 l 1
 290 160 l 9
 290 275 l 2
 290 358 255 392 190 392 c 3
 137 392 106 371 77 343 c 1
 61 356 l 1
 83 407 135 460 220 460 c 3
290 248 m 13
 290 213 l 21
 155 213 130 185 130 127 c 7
 130 79 153 54 197 54 c 7
 237 54 290 83 290 160 c 5
 295 85 l 5
 275 36 227 -10 162 -10 c 7
 79 -10 35 36 35 105 c 7
 35 190 97 248 290 248 c 13
EndSplineSet
Fore
SplineSet
290 248 m 9
 290 213 l 17
 180 213 130 185 130 122 c 3
 130 89 148 54 192 54 c 3
 237 54 280 78 290 145 c 1
 295 90 l 1
 275 36 217 -10 162 -10 c 3
 79 -10 35 36 35 105 c 3
 35 190 122 248 290 248 c 9
230 460 m 3
 335 460 375 410 375 280 c 2
 375 130 l 17
 390 60 l 1
 455 45 l 25
 455 25 l 1
 287 -10 l 25
 295 90 l 1
 290 145 l 9
 290 280 l 2
 290 353 260 387 200 387 c 3
 152 387 120 375 85 350 c 1
 65 370 l 1
 100 415 145 460 230 460 c 3
EndSplineSet
EndChar

StartChar: b
Encoding: 98 98 11
GlifName: b
Width: 510
VWidth: 0
Flags: MW
LayerCount: 2
Fore
SplineSet
80 15 m 1
 80 555 l 1
 65 625 l 1
 10 640 l 25
 10 660 l 1
 175 680 l 1
 165 560 l 9
 160 351 l 1
 165 316 l 1
 165 110 l 1
 175 40 l 1
 190 35 201 32 219 32 c 3
 314 32 385 77 385 220 c 3
 385 335 351 387 275 387 c 3
 229 387 186 356 165 316 c 1
 160 351 l 1
 184 406 239 460 312 460 c 3
 415 460 475 384 475 242 c 3
 475 102 367 -10 218 -10 c 3
 160 -10 118 -1 80 15 c 1
EndSplineSet
Validated: 5
EndChar

StartChar: f
Encoding: 102 102 12
GlifName: f
Width: 330
VWidth: 0
Flags: HMW
LayerCount: 2
Fore
SplineSet
50 450 m 1
 180 450 l 1
 300 450 l 1
 300 400 l 1
 10 400 l 1
 10 415 l 1
 50 450 l 1
247 610 m 3
 199 610 172 593 172 561 c 3
 172 526 180 493 180 450 c 3
 180 115 l 1
 195 45 l 25
 275 20 l 25
 275 0 l 25
 20 0 l 25
 20 20 l 25
 80 45 l 25
 95 115 l 1
 95 460 l 3
 95 565 155 690 282 690 c 3
 313 690 330 686 350 678 c 9
 326 589 l 17
 305 601 282 610 247 610 c 3
EndSplineSet
Validated: 5
EndChar

StartChar: v
Encoding: 118 118 13
GlifName: v
Width: 455
VWidth: 0
Flags: MW
LayerCount: 2
Back
SplineSet
334 335 m 5
 349 405 l 29
 295 430 l 29
 295 450 l 29
 475 450 l 29
 475 430 l 29
 416 405 l 29
 381 335 l 5
 257 -10 l 21
 194 -10 l 5
 67 335 l 5
 32 405 l 5
 -18 430 l 29
 -18 450 l 29
 195 450 l 29
 195 430 l 29
 145 405 l 29
 160 335 l 29
 251 78 l 29
 334 335 l 5
EndSplineSet
Fore
SplineSet
334 335 m 1
 344 405 l 25
 290 430 l 25
 290 450 l 25
 475 450 l 25
 475 430 l 25
 421 405 l 25
 381 335 l 1
 257 -10 l 17
 194 -10 l 1
 67 335 l 1
 32 405 l 1
 -18 430 l 25
 -18 450 l 25
 195 450 l 25
 195 430 l 25
 145 405 l 25
 160 335 l 25
 249 83 l 25
 334 335 l 1
EndSplineSet
Validated: 1
EndChar

StartChar: r
Encoding: 114 114 14
GlifName: r
Width: 385
VWidth: 0
Flags: HMW
AnchorPoint: "bottom" 175 0 basechar 0
AnchorPoint: "top" 220 450 basechar 0
LayerCount: 2
Back
SplineSet
480 110 m 29
 492 45 l 29
 560 20 l 29
 560 0 l 29
 325 0 l 29
 325 20 l 29
 383 45 l 29
 395 110 l 29
 395 260 l 6
 395 357 363 387 297 387 c 7
 245 387 201 353 180 301 c 5
 175 336 l 5
 199 404 249 460 339 460 c 7
 432 460 480 417 480 270 c 6
 480 110 l 29
25 445 m 5
 190 455 l 29
 175 336 l 5
 180 301 l 5
 180 110 l 5
 192 45 l 29
 250 20 l 29
 250 0 l 29
 15 0 l 29
 15 20 l 29
 83 45 l 29
 95 110 l 29
 95 330 l 29
 80 400 l 5
 25 425 l 29
 25 445 l 5
EndSplineSet
Fore
SplineSet
95 110 m 9
 95 330 l 25
 80 400 l 1
 25 425 l 25
 25 445 l 1
 190 455 l 25
 172 310 l 1
 175 275 l 1
 180 110 l 1
 192 45 l 25
 275 20 l 25
 275 0 l 25
 20 0 l 25
 20 20 l 25
 83 45 l 25
 95 110 l 9
322 460 m 3
 342 460 351 458 367 455 c 9
 355 355 l 17
 340 358 325 362 306 362 c 3
 232 362 199 338 175 275 c 1
 172 310 l 1
 195 376 248 460 322 460 c 3
EndSplineSet
Validated: 5
EndChar

StartChar: s
Encoding: 115 115 15
GlifName: s
Width: 410
VWidth: 0
Flags: HMW
AnchorPoint: "bottom" 210 0 basechar 0
AnchorPoint: "top" 210 450 basechar 0
LayerCount: 2
Back
SplineSet
286 95 m 3
 286 140 253 156 178 180 c 0
 104 204 50 252 50 330 c 3
 50 407 105 460 210 460 c 3
 295 460 328 440 348 425 c 1
 348 318 l 1
 300 315 l 1
 287 390 l 1
 267 408 253 418 203 418 c 3
 153 418 125 394 125 354 c 3
 125 314 170 289 240 267 c 0
 318 242 365 197 365 132 c 3
 365 32 308 -10 185 -10 c 3
 125 -10 85 6 52 25 c 1
 50 137 l 1
 97 140 l 1
 113 65 l 1
 137 45 166 35 203 35 c 3
 252 35 286 51 286 95 c 3
EndSplineSet
Fore
SplineSet
50 320 m 3
 50 410 120 460 210 460 c 3
 265 460 320 450 350 435 c 1
 350 320 l 1
 300 315 l 1
 285 390 l 1
 270 405 240 418 200 418 c 3
 155 418 120 395 120 355 c 3
 120 260 365 290 365 135 c 3
 365 30 275 -10 170 -10 c 3
 130 -10 85 -5 55 10 c 1
 50 130 l 1
 100 135 l 1
 120 55 l 1
 140 40 170 35 200 35 c 3
 245 35 290 50 290 95 c 3
 290 195 50 160 50 320 c 3
EndSplineSet
Validated: 1
EndChar

StartChar: g
Encoding: 103 103 16
GlifName: g
Width: 520
VWidth: 0
Flags: HMW
AnchorPoint: "bottom" 250 -210 basechar 0
AnchorPoint: "top" 270 450 basechar 0
LayerCount: 2
Fore
SplineSet
470 515 m 1
 460 425 l 1
 369 430 l 1
 325 450 l 1
 390 470 l 1
 452 519 l 1
 470 515 l 1
151 172 m 9
 183 160 l 17
 168 145 158 123 158 108 c 3
 158 81 190 75 265 75 c 3
 405 75 475 55 475 -35 c 3
 475 -135 365 -220 235 -220 c 3
 135 -220 50 -190 50 -100 c 3
 50 -45 85 -7 140 23 c 9
 160 5 l 17
 125 -20 120 -35 120 -70 c 3
 120 -130 175 -165 260 -165 c 3
 340 -165 407 -140 407 -70 c 3
 407 -25 355 -10 250 -10 c 3
 125 -10 80 25 80 75 c 3
 80 105 116 144 151 172 c 9
243 420 m 3
 193 420 160 383 160 310 c 3
 160 230 197 190 257 190 c 3
 307 190 340 227 340 300 c 3
 340 380 303 420 243 420 c 3
252 150 m 3
 127 150 70 212 70 302 c 3
 70 392 138 460 248 460 c 3
 373 460 430 398 430 308 c 3
 430 218 362 150 252 150 c 3
EndSplineSet
Validated: 5
EndChar

StartChar: y
Encoding: 121 121 17
GlifName: y
Width: 455
VWidth: 0
Flags: MW
AnchorPoint: "bottom" 220 -210 basechar 0
AnchorPoint: "top" 240 450 basechar 0
LayerCount: 2
Back
SplineSet
339 335 m 5
 349 405 l 29
 295 430 l 29
 295 450 l 29
 480 450 l 29
 480 430 l 29
 426 405 l 29
 386 335 l 5
 262 -10 l 21
 199 -10 l 5
 72 335 l 5
 37 405 l 5
 -13 430 l 29
 -13 450 l 29
 200 450 l 29
 200 430 l 29
 150 405 l 29
 165 335 l 29
 254 83 l 29
 339 335 l 5
EndSplineSet
Fore
SplineSet
76 -220 m 3
 45 -220 21 -216 1 -208 c 9
 25 -122 l 17
 49 -131 91 -143 122 -143 c 3
 163 -143 185 -120 201 -59 c 2
 210 -25 l 1
 71 335 l 1
 35 405 l 1
 -15 430 l 25
 -15 450 l 25
 198 450 l 25
 198 430 l 25
 148 405 l 25
 164 335 l 25
 256 88 l 1
 339 335 l 1
 349 405 l 25
 290 430 l 25
 290 450 l 25
 475 450 l 25
 475 430 l 25
 426 405 l 25
 386 335 l 1
 254 -35 l 18
 201 -183 151 -220 76 -220 c 3
EndSplineSet
Validated: 1
EndChar

StartChar: m
Encoding: 109 109 18
GlifName: m
Width: 855
VWidth: 0
Flags: MW
LayerCount: 2
Back
SplineSet
485 110 m 29
 497 45 l 29
 565 20 l 29
 565 0 l 29
 330 0 l 29
 330 20 l 29
 388 45 l 29
 400 110 l 29
 400 260 l 6
 400 357 368 387 302 387 c 7
 250 387 206 353 185 301 c 5
 180 336 l 5
 204 404 254 460 344 460 c 7
 437 460 485 417 485 270 c 6
 485 110 l 29
30 445 m 5
 195 455 l 29
 180 336 l 5
 185 301 l 5
 185 110 l 5
 197 45 l 29
 255 20 l 29
 255 0 l 29
 20 0 l 29
 20 20 l 29
 88 45 l 29
 100 110 l 29
 100 330 l 29
 85 400 l 5
 30 425 l 29
 30 445 l 5
EndSplineSet
Fore
SplineSet
765 110 m 25
 777 45 l 25
 845 20 l 25
 845 0 l 25
 610 0 l 25
 610 20 l 25
 668 45 l 25
 680 110 l 25
 680 260 l 2
 680 357 653 387 587 387 c 3
 535 387 496 353 474 299 c 1
 470 336 l 1
 494 404 539 460 629 460 c 3
 722 460 765 417 765 270 c 2
 765 110 l 25
475 110 m 25
 487 45 l 25
 545 20 l 25
 545 0 l 25
 320 0 l 25
 320 20 l 25
 378 45 l 25
 390 110 l 25
 390 260 l 2
 390 357 363 387 297 387 c 3
 245 387 206 353 185 301 c 1
 180 336 l 1
 204 404 249 460 339 460 c 3
 432 460 475 417 475 270 c 2
 475 110 l 25
30 445 m 1
 195 455 l 25
 180 336 l 1
 185 301 l 1
 185 110 l 1
 197 45 l 25
 255 20 l 25
 255 0 l 25
 20 0 l 25
 20 20 l 25
 88 45 l 25
 100 110 l 25
 100 330 l 25
 85 400 l 1
 30 425 l 25
 30 445 l 1
EndSplineSet
Validated: 5
EndChar

StartChar: I
Encoding: 73 73 19
GlifName: I_
Width: 330
VWidth: 0
Flags: MW
AnchorPoint: "bottom" 165 0 basechar 0
AnchorPoint: "top" 165 650 basechar 0
LayerCount: 2
Back
SplineSet
215 455 m 25
 205 335 l 1
 205 115 l 1
 220 45 l 25
 280 20 l 25
 280 0 l 25
 40 0 l 25
 40 20 l 25
 105 45 l 25
 120 115 l 25
 120 330 l 25
 105 400 l 1
 50 425 l 25
 50 445 l 1
 215 455 l 25
EndSplineSet
Fore
SplineSet
35 650 m 29
 295 650 l 29
 295 628 l 29
 225 603 l 29
 210 523 l 21
 210 127 l 5
 225 47 l 29
 300 22 l 29
 300 0 l 29
 30 0 l 29
 30 22 l 29
 105 47 l 29
 120 127 l 5
 120 523 l 21
 105 603 l 29
 35 628 l 29
 35 650 l 29
EndSplineSet
Validated: 1
EndChar

StartChar: u
Encoding: 117 117 20
GlifName: u
Width: 545
VWidth: 0
Flags: MW
AnchorPoint: "bottom" 262 0 basechar 0
AnchorPoint: "top" 260 450 basechar 0
LayerCount: 2
Back
SplineSet
85 340 m 29
 73 405 l 29
 5 430 l 29
 5 450 l 29
 240 450 l 29
 240 430 l 29
 182 405 l 29
 170 340 l 29
 170 190 l 6
 170 93 202 63 268 63 c 7
 320 63 359 97 385 149 c 5
 390 114 l 5
 366 46 316 -10 226 -10 c 7
 133 -10 85 33 85 180 c 6
 85 340 l 29
540 5 m 5
 375 -5 l 29
 390 114 l 5
 385 149 l 5
 385 340 l 5
 373 405 l 29
 315 430 l 29
 315 450 l 29
 550 450 l 29
 550 430 l 29
 482 405 l 29
 470 340 l 29
 470 120 l 29
 485 50 l 5
 540 25 l 29
 540 5 l 5
EndSplineSet
Fore
SplineSet
370 105 m 1
 370 140 l 1
 365 335 l 1
 353 400 l 1
 290 425 l 25
 290 445 l 1
 465 453 l 25
 450 340 l 1
 450 125 l 1
 462 60 l 1
 530 45 l 25
 530 25 l 1
 362 -10 l 1
 370 105 l 1
180 454 m 25
 168 340 l 9
 168 190 l 2
 168 93 197 63 260 63 c 3
 316 63 345 98 370 140 c 1
 370 105 l 1
 337 43 308 -10 219 -10 c 3
 134 -10 85 33 85 180 c 2
 85 335 l 25
 73 400 l 1
 5 426 l 25
 5 446 l 1
 180 454 l 25
EndSplineSet
Validated: 5
EndChar

StartChar: h
Encoding: 104 104 21
GlifName: h
Width: 570
VWidth: 0
Flags: MW
LayerCount: 2
Back
SplineSet
180 680 m 1
 180 317 l 1037
EndSplineSet
Fore
SplineSet
339 460 m 3
 432 460 480 417 480 270 c 2
 480 110 l 25
 492 45 l 25
 560 20 l 25
 560 0 l 25
 325 0 l 25
 325 20 l 25
 383 45 l 25
 395 110 l 25
 395 260 l 2
 395 357 363 387 297 387 c 3
 251 387 201 356 180 316 c 1
 175 351 l 1
 199 406 257 460 339 460 c 3
180 316 m 1
 180 110 l 1
 192 45 l 25
 250 20 l 25
 250 0 l 25
 15 0 l 25
 15 20 l 25
 83 45 l 25
 95 110 l 1
 95 555 l 17
 80 625 l 1
 15 640 l 25
 15 660 l 1
 190 680 l 1
 180 560 l 1
 175 351 l 9
 180 316 l 1
EndSplineSet
Validated: 5
EndChar

StartChar: j
Encoding: 106 106 22
GlifName: j
Width: 260
VWidth: 0
Flags: MW
LayerCount: 2
Fore
SplineSet
65 620 m 3
 65 655 90 680 125 680 c 3
 160 680 185 655 185 620 c 3
 185 585 160 560 125 560 c 3
 90 560 65 585 65 620 c 3
21 -220 m 3
 -5 -220 -20 -216 -40 -210 c 9
 -19 -122 l 17
 7 -131 38 -137 64 -137 c 3
 89 -137 107 -124 107 -90 c 3
 107 -60 95 33 95 80 c 2
 95 330 l 1
 80 400 l 1
 25 425 l 25
 25 445 l 1
 190 455 l 25
 180 335 l 1
 180 40 l 2
 180 -153 104 -220 21 -220 c 3
EndSplineSet
Validated: 1
EndChar

StartChar: k
Encoding: 107 107 23
GlifName: k
Width: 505
VWidth: 0
Flags: HMW
AnchorPoint: "bottom" 275 0 basechar 0
AnchorPoint: "top" 135 670 basechar 0
LayerCount: 2
Back
SplineSet
95 555 m 29
 80 625 l 5
 15 640 l 29
 15 660 l 5
 190 680 l 5
 180 560 l 5
 180 115 l 5
 195 45 l 29
 255 20 l 29
 255 0 l 29
 15 0 l 29
 15 20 l 29
 80 45 l 29
 95 115 l 5
 95 555 l 29
EndSplineSet
Fore
SplineSet
454 45 m 1
 520 20 l 25
 520 0 l 1
 365 0 l 25
 291 105 l 1
 205 215 l 25
 313 345 l 1
 340 400 l 25
 295 430 l 25
 295 450 l 25
 490 450 l 25
 490 430 l 25
 432 400 l 25
 366 345 l 1
 283 246 l 17
 454 45 l 1
95 555 m 25
 80 625 l 1
 15 640 l 25
 15 660 l 1
 190 680 l 1
 180 560 l 1
 180 115 l 1
 195 45 l 25
 255 20 l 25
 255 0 l 25
 15 0 l 25
 15 20 l 25
 80 45 l 25
 95 115 l 1
 95 555 l 25
EndSplineSet
Validated: 1
EndChar

StartChar: w
Encoding: 119 119 24
GlifName: w
Width: 710
VWidth: 0
Flags: MW
LayerCount: 2
Back
SplineSet
334 335 m 5
 344 405 l 29
 295 430 l 29
 295 450 l 29
 475 450 l 29
 475 430 l 29
 421 405 l 29
 381 335 l 5
 257 -10 l 21
 194 -10 l 5
 67 335 l 5
 32 405 l 5
 -18 430 l 29
 -18 450 l 29
 195 450 l 29
 195 430 l 29
 145 405 l 29
 160 335 l 29
 249 83 l 29
 334 335 l 5
EndSplineSet
Fore
SplineSet
401 430 m 1
 514 83 l 1
 588 335 l 1
 599 405 l 25
 545 430 l 25
 545 450 l 25
 730 450 l 25
 730 430 l 25
 676 405 l 25
 635 335 l 1
 522 -10 l 17
 459 -10 l 1
 354 305 l 1
 252 -10 l 1
 189 -10 l 1
 69 335 l 1
 35 405 l 1
 -15 430 l 25
 -15 450 l 25
 198 450 l 25
 198 430 l 25
 148 405 l 25
 162 335 l 25
 239 83 l 1
 350 430 l 1
 401 430 l 1
EndSplineSet
Validated: 1
EndChar

StartChar: x
Encoding: 120 120 25
GlifName: x
Width: 470
VWidth: 0
Flags: HMW
LayerCount: 2
Fore
SplineSet
267 450 m 25
 452 450 l 25
 452 430 l 25
 390 405 l 25
 336 345 l 9
 252 220 l 25
 216 235 l 25
 287 345 l 1
 314 405 l 25
 267 430 l 25
 267 450 l 25
160 105 m 1
 131 45 l 25
 178 20 l 25
 178 0 l 25
 -7 0 l 25
 -7 20 l 25
 55 45 l 25
 111 105 l 9
 196 230 l 25
 237 215 l 25
 160 105 l 1
211 335 m 17
 258 256 l 1
 352 115 l 1
 410 45 l 1
 465 20 l 25
 465 0 l 25
 247 0 l 25
 247 20 l 25
 287 45 l 1
 254 115 l 17
 197 207 l 1
 113 335 l 1
 55 405 l 1
 0 430 l 25
 0 450 l 25
 218 450 l 25
 218 430 l 25
 178 405 l 25
 211 335 l 17
EndSplineSet
Validated: 5
EndChar

StartChar: q
Encoding: 113 113 26
GlifName: q
Width: 520
VWidth: 0
Flags: MW
LayerCount: 2
Back
SplineSet
125 227 m 7
 125 115 174 58 245 58 c 7
 302 58 329 86 355 119 c 5
 360 84 l 5
 336 36 298 -10 203 -10 c 7
 105 -10 35 66 35 205 c 7
 35 342 111 455 247 455 c 7
 297 455 328 445 355 430 c 13
 355 380 l 21
 332 399 302 410 265 410 c 7
 187 410 125 367 125 227 c 7
440 560 m 13
 440 130 l 5
 455 60 l 5
 520 45 l 29
 520 25 l 5
 345 -10 l 29
 360 84 l 5
 355 119 l 5
 355 555 l 13
 340 625 l 5
 285 640 l 29
 285 660 l 5
 450 680 l 5
 440 560 l 13
EndSplineSet
Fore
SplineSet
520 -210 m 17
 280 -210 l 25
 280 -190 l 25
 340 -165 l 1
 355 -95 l 25
 360 86 l 1
 355 121 l 1
 355 335 l 1
 345 405 l 1
 330 413 309 418 286 418 c 3
 196 418 125 373 125 230 c 3
 125 115 169 63 245 63 c 3
 291 63 329 83 355 121 c 1
 360 86 l 1
 336 33 281 -10 208 -10 c 3
 105 -10 35 66 35 208 c 3
 35 348 143 460 292 460 c 3
 350 460 402 451 440 430 c 1
 440 -95 l 1
 455 -165 l 1
 520 -190 l 1
 520 -210 l 17
EndSplineSet
Validated: 5
EndChar

StartChar: z
Encoding: 122 122 27
GlifName: z
Width: 420
VWidth: 0
Flags: HMW
AnchorPoint: "bottom" 215 0 basechar 0
AnchorPoint: "top" 210 450 basechar 0
LayerCount: 2
Fore
SplineSet
45 455 m 1
 145 450 l 1
 385 450 l 1
 385 430 l 1
 138 37 l 1
 262 37 l 1
 332 52 l 1
 352 130 l 1
 395 125 l 1
 388 0 l 1
 25 0 l 1
 25 20 l 1
 272 413 l 1
 171 413 l 1
 101 398 l 1
 81 319 l 1
 38 323 l 1
 45 455 l 1
EndSplineSet
Validated: 1
EndChar

StartChar: hyphen
Encoding: 45 45 28
GlifName: hyphen
Width: 320
VWidth: 0
Flags: MW
LayerCount: 2
Fore
SplineSet
50 275 m 5
 270 275 l 5
 270 220 l 5
 50 220 l 5
 50 275 l 5
EndSplineSet
Validated: 1
EndChar

StartChar: period
Encoding: 46 46 29
GlifName: period
Width: 260
VWidth: 0
Flags: MW
LayerCount: 2
Fore
SplineSet
65 55 m 3
 65 95 90 120 130 120 c 3
 170 120 195 95 195 55 c 3
 195 15 170 -10 130 -10 c 3
 90 -10 65 15 65 55 c 3
EndSplineSet
Validated: 1
EndChar

StartChar: comma
Encoding: 44 44 30
GlifName: comma
Width: 260
VWidth: 0
Flags: MW
LayerCount: 2
Fore
SplineSet
65 56 m 3
 65 93 90 120 130 120 c 3
 174 120 200 87 200 37 c 3
 200 -48 152 -104 94 -139 c 9
 72 -106 l 1
 105 -85 142 -52 138 0 c 1
 131 -2 127 -3 120 -3 c 3
 86 -3 65 19 65 56 c 3
EndSplineSet
Validated: 33
EndChar

StartChar: exclam
Encoding: 33 33 31
GlifName: exclam
Width: 260
VWidth: 0
Flags: HMW
LayerCount: 2
Fore
SplineSet
183 655 m 1
 155 209 l 1
 105 209 l 1
 70 640 l 1
 183 655 l 1
EndSplineSet
Refer: 29 46 N 1 0 0 1 0 0 2
Validated: 1
EndChar

StartChar: Y
Encoding: 89 89 32
GlifName: Y_
Width: 560
VWidth: 0
Flags: HMW
AnchorPoint: "bottom" 280 0 basechar 0
AnchorPoint: "top" 285 650 basechar 0
LayerCount: 2
Fore
SplineSet
235 318 m 17
 325 318 l 17
 325 127 l 1
 340 47 l 25
 415 22 l 25
 415 0 l 25
 145 0 l 25
 145 22 l 25
 220 47 l 25
 235 127 l 1
 235 318 l 17
-15 650 m 25
 230 650 l 25
 230 628 l 25
 170 603 l 25
 199 533 l 1
 305 342 l 1
 403 533 l 1
 425 603 l 25
 361 628 l 25
 361 650 l 25
 570 650 l 25
 570 628 l 25
 506 603 l 25
 454 533 l 1
 309 259 l 1
 246 259 l 1
 94 533 l 1
 45 603 l 1
 -15 628 l 25
 -15 650 l 25
EndSplineSet
Validated: 5
EndChar

StartChar: O
Encoding: 79 79 35
GlifName: O_
Width: 710
VWidth: 0
Flags: HMW
AnchorPoint: "top" 350 650 basechar 0
AnchorPoint: "bottom" 360 0 basechar 0
LayerCount: 2
Back
SplineSet
245 415 m 3
 166 415 135 343 135 232 c 3
 135 111 173 35 265 35 c 3
 344 35 375 107 375 218 c 3
 375 339 337 415 245 415 c 3
258 -10 m 3
 110 -10 35 83 35 220 c 3
 35 357 120 460 252 460 c 3
 400 460 475 367 475 230 c 3
 475 93 390 -10 258 -10 c 3
EndSplineSet
Fore
SplineSet
340 613 m 3
 210 613 150 497 150 332 c 3
 150 152 220 37 370 37 c 3
 500 37 560 153 560 318 c 3
 560 498 490 613 340 613 c 3
360 -10 m 3
 145 -10 45 120 45 320 c 3
 45 520 160 660 350 660 c 3
 565 660 665 530 665 330 c 3
 665 130 550 -10 360 -10 c 3
EndSplineSet
Validated: 1
EndChar

StartChar: D
Encoding: 68 68 36
GlifName: D_
Width: 680
VWidth: 0
Flags: HMW
AnchorPoint: "top" 300 650 basechar 0
AnchorPoint: "bottom" 300 0 basechar 0
LayerCount: 2
Back
SplineSet
120 523 m 17
 105 603 l 25
 35 628 l 25
 35 650 l 25
 295 650 l 25
 295 628 l 25
 225 603 l 25
 210 523 l 17
 210 127 l 1
 225 47 l 25
 300 22 l 25
 300 0 l 25
 30 0 l 25
 30 22 l 25
 105 47 l 25
 120 127 l 1
 120 523 l 17
EndSplineSet
Fore
SplineSet
35 650 m 1
 325 650 l 18
 547 650 650 560 650 340 c 3
 650 120 520 0 320 0 c 10
 30 0 l 1
 30 22 l 25
 105 47 l 25
 120 127 l 1
 120 523 l 17
 105 603 l 25
 35 628 l 25
 35 650 l 1
210 610 m 1
 210 55 l 1
 290 40 l 1
 315 40 l 2
 445 40 545 120 545 325 c 3
 545 530 465 610 315 610 c 10
 210 610 l 1
EndSplineSet
Validated: 1
EndChar

StartChar: U
Encoding: 85 85 37
GlifName: U_
Width: 690
VWidth: 0
Flags: MW
AnchorPoint: "top" 360 650 basechar 0
AnchorPoint: "bottom" 360 0 basechar 0
LayerCount: 2
Fore
SplineSet
595 250 m 2
 595 70 520 -10 345 -10 c 3
 165 -10 105 70 105 250 c 2
 105 523 l 1
 90 603 l 25
 20 628 l 25
 20 650 l 25
 280 650 l 25
 280 628 l 25
 210 603 l 25
 195 523 l 1
 195 220 l 2
 195 85 260 40 370 40 c 3
 480 40 545 85 545 220 c 2
 545 523 l 1
 530 603 l 25
 460 628 l 25
 460 650 l 25
 680 650 l 25
 680 628 l 25
 610 603 l 25
 595 523 l 1
 595 250 l 2
EndSplineSet
Validated: 1
EndChar

StartChar: Q
Encoding: 81 81 38
GlifName: Q_
Width: 710
VWidth: 0
Flags: HMW
LayerCount: 2
Fore
SplineSet
425 28 m 1
 435 0 l 1
 305 -34 l 1
 425 -50 l 1
 555 -85 l 1
 650 -70 l 25
 655 -90 l 1
 505 -155 l 25
 360 -105 l 1
 148 -59 l 1
 148 -39 l 1
 246 -22 l 1
 425 28 l 1
EndSplineSet
Refer: 35 79 N 1 0 0 1 0 0 2
Validated: 5
EndChar

StartChar: E
Encoding: 69 69 39
GlifName: E_
Width: 575
VWidth: 0
Flags: HMW
AnchorPoint: "bottom" 300 0 basechar 0
AnchorPoint: "top" 310 650 basechar 0
LayerCount: 2
Fore
SplineSet
210 350 m 1
 285 350 l 1
 365 360 l 1
 380 440 l 1
 412 440 l 1
 412 220 l 1
 380 220 l 1
 365 300 l 1
 285 310 l 25
 210 310 l 1
 210 350 l 1
35 650 m 1
 503 650 l 25
 510 505 l 1
 470 500 l 1
 447 595 l 1
 367 610 l 25
 210 610 l 1
 210 55 l 1
 290 40 l 1
 387 40 l 1
 467 55 l 1
 492 148 l 1
 533 143 l 1
 523 0 l 25
 30 0 l 1
 30 22 l 25
 105 47 l 25
 120 127 l 1
 120 523 l 17
 105 603 l 25
 35 628 l 25
 35 650 l 1
EndSplineSet
Validated: 5
EndChar

StartChar: A
Encoding: 65 65 40
GlifName: A_
Width: 660
VWidth: 0
Flags: HMW
AnchorPoint: "bottom" 320 0 basechar 0
AnchorPoint: "top" 325 630 basechar 0
LayerCount: 2
Back
SplineSet
151 115 m 1
 141 45 l 25
 195 20 l 25
 195 0 l 25
 10 0 l 25
 10 20 l 25
 64 45 l 25
 104 115 l 1
 228 460 l 17
 291 460 l 1
 418 115 l 1
 453 45 l 1
 503 20 l 25
 503 0 l 25
 290 0 l 25
 290 20 l 25
 340 45 l 25
 325 115 l 25
 236 367 l 25
 151 115 l 1
EndSplineSet
Fore
SplineSet
181 275 m 5
 444 275 l 5
 444 235 l 5
 181 235 l 5
 181 275 l 5
296 660 m 21
 366 660 l 5
 560 127 l 1
 600 47 l 1
 660 22 l 25
 660 0 l 25
 422 0 l 25
 422 22 l 25
 482 47 l 29
 462 127 l 29
 307 564 l 5
 157 127 l 1
 144 47 l 25
 208 22 l 29
 208 0 l 29
 0 0 l 29
 0 22 l 29
 64 47 l 25
 107 127 l 1
 296 660 l 21
EndSplineSet
Validated: 5
EndChar

StartChar: H
Encoding: 72 72 41
GlifName: H_
Width: 740
VWidth: 0
Flags: MW
LayerCount: 2
Back
SplineSet
120 523 m 21
 105 603 l 29
 35 628 l 29
 35 650 l 29
 295 650 l 29
 295 628 l 29
 225 603 l 29
 210 523 l 21
 210 127 l 5
 225 47 l 29
 300 22 l 29
 300 0 l 29
 30 0 l 29
 30 22 l 29
 105 47 l 29
 120 127 l 5
 120 523 l 21
EndSplineSet
Fore
SplineSet
210 350 m 1
 530 350 l 1
 530 310 l 25
 210 310 l 1
 210 350 l 1
530 523 m 17
 515 603 l 25
 450 628 l 25
 450 650 l 25
 705 650 l 25
 705 628 l 25
 635 603 l 25
 620 523 l 17
 620 127 l 1
 635 47 l 25
 710 22 l 25
 710 0 l 25
 445 0 l 25
 445 22 l 25
 515 47 l 25
 530 127 l 1
 530 523 l 17
120 523 m 17
 105 603 l 25
 35 628 l 25
 35 650 l 25
 290 650 l 25
 290 628 l 25
 225 603 l 25
 210 523 l 17
 210 127 l 1
 225 47 l 25
 295 22 l 25
 295 0 l 25
 30 0 l 25
 30 22 l 25
 105 47 l 25
 120 127 l 1
 120 523 l 17
EndSplineSet
Validated: 5
EndChar

StartChar: B
Encoding: 66 66 42
GlifName: B_
Width: 600
VWidth: 0
Flags: MW
AnchorPoint: "bottom" 300 0 basechar 0
AnchorPoint: "top" 270 650 basechar 0
LayerCount: 2
Fore
SplineSet
540 190 m 3
 540 80 457 0 315 0 c 2
 30 0 l 1
 30 22 l 25
 105 47 l 25
 120 127 l 1
 120 523 l 17
 105 603 l 25
 35 628 l 25
 35 650 l 1
 300 650 l 2
 445 650 510 600 510 500 c 3
 510 405 445 366 380 350 c 1
 460 343 540 290 540 190 c 3
443 190 m 3
 443 300 355 320 270 320 c 2
 210 320 l 1
 210 360 l 1
 270 360 l 2
 370 360 413 420 413 500 c 3
 413 568 375 610 265 610 c 2
 210 610 l 1
 210 50 l 1
 280 40 l 1
 295 40 l 2
 380 40 443 90 443 190 c 3
EndSplineSet
Validated: 5
Comment: "We lighten the bowls slightly (by 3 units) which violates the superinteger-5 rule"
EndChar

StartChar: L
Encoding: 76 76 43
GlifName: L_
Width: 540
VWidth: 0
Flags: HMW
AnchorPoint: "top" 185 650 basechar 0
AnchorPoint: "bottom" 295 0 basechar 0
LayerCount: 2
Fore
SplineSet
210 523 m 17
 210 55 l 1
 290 40 l 1
 374 40 l 1
 454 55 l 1
 475 155 l 1
 520 153 l 1
 510 0 l 25
 30 0 l 1
 30 22 l 25
 105 47 l 25
 120 127 l 1
 120 523 l 17
 105 603 l 25
 35 628 l 25
 35 650 l 25
 295 650 l 25
 295 628 l 25
 225 603 l 1
 210 523 l 17
EndSplineSet
Validated: 1
EndChar

StartChar: C
Encoding: 67 67 44
GlifName: C_
Width: 625
VWidth: 0
Flags: MW
AnchorPoint: "top" 365 650 basechar 0
AnchorPoint: "bottom" 365 0 basechar 0
LayerCount: 2
Fore
SplineSet
385 37 m 7
 437 37 468 46 514 66 c 5
 529 165 l 5
 575 160 l 5
 565 15 l 5
 515 0 448 -10 375 -10 c 7
 153 -10 45 120 45 320 c 7
 45 520 165 660 365 660 c 7
 437 660 510 650 560 635 c 5
 565 490 l 5
 520 487 l 5
 505 580 l 5
 465 598 429 613 355 613 c 7
 215 613 150 497 150 332 c 7
 150 152 225 37 385 37 c 7
EndSplineSet
Validated: 1
EndChar

StartChar: F
Encoding: 70 70 45
GlifName: F_
Width: 530
VWidth: 0
Flags: HMW
LayerCount: 2
Back
SplineSet
120 523 m 21
 105 603 l 29
 35 628 l 29
 35 650 l 29
 295 650 l 29
 295 628 l 29
 225 603 l 29
 210 523 l 21
 210 127 l 5
 225 47 l 29
 300 22 l 29
 300 0 l 29
 30 0 l 29
 30 22 l 29
 105 47 l 29
 120 127 l 5
 120 523 l 21
210 350 m 1
 285 350 l 1
 365 360 l 1
 380 440 l 1
 412 440 l 1
 412 220 l 1
 380 220 l 1
 365 300 l 1
 285 310 l 25
 210 310 l 1
 210 350 l 1
35 650 m 1
 503 650 l 25
 510 506 l 1
 470 502 l 1
 447 595 l 1
 367 610 l 25
 210 610 l 1
 210 55 l 1
 290 40 l 1
 387 40 l 1
 467 55 l 1
 492 148 l 1
 533 143 l 1
 523 0 l 25
 30 0 l 1
 30 22 l 25
 105 47 l 25
 120 127 l 1
 120 523 l 17
 105 603 l 25
 35 628 l 25
 35 650 l 1
EndSplineSet
Fore
SplineSet
35 650 m 1
 488 650 l 21
 490 505 l 5
 450 500 l 5
 432 595 l 5
 352 610 l 25
 210 610 l 1
 210 127 l 1
 225 47 l 1
 310 22 l 25
 310 0 l 25
 30 0 l 25
 30 22 l 25
 105 47 l 25
 120 127 l 1
 120 523 l 17
 105 603 l 25
 35 628 l 25
 35 650 l 1
210 340 m 1
 295 340 l 1
 375 350 l 1
 390 430 l 1
 422 430 l 1
 422 210 l 1
 390 210 l 1
 375 290 l 1
 295 300 l 25
 210 300 l 1
 210 340 l 1
EndSplineSet
Validated: 5
EndChar

StartChar: G
Encoding: 71 71 46
GlifName: G_
Width: 700
VWidth: 0
Flags: HMW
AnchorPoint: "bottom" 365 0 basechar 0
AnchorPoint: "top" 365 650 basechar 0
LayerCount: 2
Back
SplineSet
385 37 m 7
 437 37 468 46 514 66 c 5
 529 163 l 5
 575 158 l 5
 565 15 l 5
 515 0 448 -10 375 -10 c 7
 153 -10 45 120 45 320 c 7
 45 520 165 660 365 660 c 7
 437 660 510 650 560 635 c 5
 565 491 l 5
 520 487 l 5
 505 580 l 5
 465 598 429 613 355 613 c 7
 215 613 150 497 150 332 c 7
 150 152 225 37 385 37 c 7
EndSplineSet
Fore
SplineSet
505 178 m 17
 495 248 l 25
 425 273 l 25
 425 295 l 25
 675 295 l 25
 675 273 l 25
 605 248 l 25
 595 178 l 1
 595 28 l 1
 532 7 479 -10 385 -10 c 3
 158 -10 45 120 45 320 c 3
 45 520 165 660 365 660 c 3
 457 660 533 647 583 627 c 1
 588 486 l 1
 540 482 l 1
 525 572 l 1
 485 595 449 613 355 613 c 3
 215 613 150 497 150 332 c 3
 150 152 230 37 395 37 c 3
 446 37 479 46 505 56 c 9
 505 178 l 17
EndSplineSet
Validated: 1
EndChar

StartChar: J
Encoding: 74 74 47
GlifName: J_
Width: 310
VWidth: 0
Flags: MW
LayerCount: 2
Fore
SplineSet
210 80 m 2
 210 -113 129 -190 46 -190 c 3
 20 -190 -10 -185 -35 -175 c 9
 -14 -77 l 17
 22 -88 63 -97 89 -97 c 3
 114 -97 137 -84 137 -50 c 3
 137 -20 120 63 120 110 c 2
 120 523 l 1
 105 603 l 25
 30 628 l 25
 30 650 l 25
 290 650 l 25
 290 628 l 25
 225 603 l 25
 210 523 l 1
 210 80 l 2
EndSplineSet
Validated: 1
EndChar

StartChar: K
Encoding: 75 75 48
GlifName: K_
Width: 630
VWidth: 0
Flags: HMW
AnchorPoint: "top" 345 650 basechar 0
AnchorPoint: "bottom" 350 0 basechar 0
LayerCount: 2
Back
SplineSet
474 149 m 1
 540 124 l 25
 540 104 l 1
 385 104 l 25
 311 209 l 1
 225 319 l 25
 333 449 l 1
 360 504 l 25
 315 534 l 25
 315 554 l 25
 510 554 l 25
 510 534 l 25
 452 504 l 25
 386 449 l 1
 303 350 l 17
 474 149 l 1
120 523 m 17
 105 603 l 25
 35 628 l 25
 35 650 l 25
 295 650 l 25
 295 628 l 25
 225 603 l 25
 210 523 l 17
 210 127 l 1
 225 47 l 25
 300 22 l 25
 300 0 l 25
 30 0 l 25
 30 22 l 25
 105 47 l 25
 120 127 l 1
 120 523 l 17
EndSplineSet
Fore
SplineSet
559 45 m 1
 630 22 l 25
 630 0 l 1
 450 0 l 25
 381 105 l 1
 225 320 l 1
 418 545 l 1
 455 600 l 25
 400 628 l 25
 400 650 l 25
 615 650 l 25
 615 628 l 25
 547 600 l 25
 480 545 l 1
 310 355 l 1
 480 130 l 1
 559 45 l 1
120 523 m 17
 105 603 l 25
 35 628 l 25
 35 650 l 25
 295 650 l 25
 295 628 l 25
 225 603 l 25
 210 523 l 17
 210 127 l 1
 225 47 l 25
 300 22 l 25
 300 0 l 25
 30 0 l 25
 30 22 l 25
 105 47 l 25
 120 127 l 1
 120 523 l 17
EndSplineSet
Validated: 1
EndChar

StartChar: M
Encoding: 77 77 49
GlifName: M_
Width: 875
Flags: MW
LayerCount: 2
Back
SplineSet
437 17 m 21
 367 17 l 5
 173 550 l 5
 133 630 l 5
 73 655 l 29
 73 677 l 29
 311 677 l 29
 311 655 l 29
 251 630 l 29
 271 550 l 29
 426 113 l 5
 576 550 l 5
 589 630 l 29
 525 655 l 29
 525 677 l 29
 733 677 l 29
 733 655 l 29
 669 630 l 29
 626 550 l 5
 437 17 l 21
EndSplineSet
Fore
SplineSet
30 650 m 5
 250 650 l 5
 275 550 l 5
 438 115 l 5
 595 550 l 5
 620 650 l 5
 835 650 l 13
 835 628 l 5
 765 603 l 29
 750 523 l 21
 750 127 l 5
 765 47 l 29
 840 22 l 29
 840 0 l 29
 585 0 l 29
 585 22 l 29
 645 47 l 5
 660 127 l 5
 665 605 l 5
 482 110 l 5
 447 0 l 5
 385 0 l 5
 348 110 l 5
 165 590 l 5
 165 127 l 5
 180 47 l 5
 235 22 l 5
 235 0 l 21
 25 0 l 5
 25 22 l 5
 100 47 l 29
 115 127 l 5
 115 523 l 21
 100 603 l 29
 30 628 l 5
 30 650 l 5
EndSplineSet
Validated: 1
EndChar

StartChar: N
Encoding: 78 78 50
GlifName: N_
Width: 680
Flags: MW
AnchorPoint: "bottom" 350 0 basechar 0
AnchorPoint: "top" 345 650 basechar 0
LayerCount: 2
Fore
SplineSet
580 0 m 1
 490 0 l 1
 440 100 l 1
 160 565 l 1
 165 455 l 1
 165 127 l 1
 180 47 l 1
 255 22 l 1
 255 0 l 17
 25 0 l 1
 25 22 l 1
 100 47 l 25
 115 127 l 1
 115 523 l 17
 100 603 l 25
 30 628 l 1
 30 650 l 1
 225 650 l 1
 275 550 l 1
 530 130 l 1
 525 240 l 1
 525 523 l 1
 510 603 l 1
 435 628 l 1
 435 650 l 17
 665 650 l 1
 665 628 l 1
 590 603 l 25
 575 523 l 1
 575 120 l 1
 580 0 l 1
EndSplineSet
Validated: 1
EndChar

StartChar: P
Encoding: 80 80 51
GlifName: P_
Width: 550
VWidth: 0
Flags: HMW
LayerCount: 2
Fore
SplineSet
285 270 m 2
 210 270 l 1
 210 315 l 1
 270 310 l 17
 364 310 420 370 420 470 c 3
 420 560 377 610 270 610 c 2
 210 610 l 1
 210 127 l 1
 225 47 l 1
 310 22 l 25
 310 0 l 25
 30 0 l 25
 30 22 l 25
 105 47 l 25
 120 127 l 1
 120 523 l 17
 105 603 l 25
 35 628 l 25
 35 650 l 1
 300 650 l 2
 450 650 520 580 520 470 c 3
 520 370 430 270 285 270 c 2
EndSplineSet
Validated: 5
EndChar

StartChar: R
Encoding: 82 82 52
GlifName: R_
Width: 600
VWidth: 0
Flags: HMW
AnchorPoint: "top" 290 650 basechar 0
AnchorPoint: "bottom" 330 0 basechar 0
LayerCount: 2
Back
SplineSet
380 330 m 1
 478 130 l 1
 529 45 l 1
 590 22 l 25
 590 0 l 1
 430 0 l 25
 389 105 l 1
 295 310 l 1
 380 330 l 1
295 310 m 9
 210 310 l 1
 210 355 l 1
 270 350 l 17
 359 350 410 395 410 490 c 3
 410 570 367 610 260 610 c 2
 210 610 l 1
 210 122 l 1
 225 42 l 1
 280 22 l 25
 280 0 l 25
 30 0 l 25
 30 22 l 25
 105 47 l 25
 120 127 l 1
 120 523 l 17
 105 603 l 25
 35 628 l 25
 35 650 l 1
 295 650 l 2
 445 650 510 590 510 490 c 3
 510 405 436 346 380 330 c 1
 295 310 l 9
EndSplineSet
Fore
SplineSet
393 105 m 1
 230 335 l 1
 360 335 410 400 410 490 c 3
 410 570 367 610 260 610 c 2
 210 610 l 1
 210 122 l 1
 225 42 l 1
 280 22 l 25
 280 0 l 25
 30 0 l 25
 30 22 l 25
 105 47 l 25
 120 127 l 1
 120 523 l 17
 105 603 l 25
 35 628 l 25
 35 650 l 1
 295 650 l 2
 445 650 510 595 510 495 c 3
 510 410 430 340 340 325 c 1
 488 130 l 1
 564 45 l 1
 615 22 l 25
 615 0 l 1
 464 0 l 25
 393 105 l 1
EndSplineSet
Validated: 1
EndChar

StartChar: S
Encoding: 83 83 53
GlifName: S_
Width: 520
VWidth: 0
Flags: HMW
AnchorPoint: "bottom" 250 0 basechar 0
AnchorPoint: "top" 270 650 basechar 0
LayerCount: 2
Back
SplineSet
235 -10 m 0
 165 -10 105 5 55 35 c 1
 50 177 l 1
 95 180 l 1
 110 85 l 1
 150 55 185 37 255 37 c 0
 335 37 385 75 385 145 c 0
 385 220 331 251 225 285 c 0
 120 319 50 370 50 480 c 0
 50 580 115 660 260 660 c 0
 330 660 400 650 450 625 c 1
 455 485 l 1
 410 482 l 1
 395 575 l 1
 355 600 325 613 255 613 c 0
 175 613 130 570 130 510 c 0
 130 440 190 405 290 375 c 0
 401 342 470 290 470 185 c 0
 470 55 395 -10 235 -10 c 0
EndSplineSet
Fore
SplineSet
270 660 m 3
 360 660 405 644 450 625 c 1
 450 500 l 1
 405 495 l 1
 390 580 l 1
 355 600 325 613 255 613 c 3
 185 613 130 570 130 510 c 3
 130 330 470 425 470 185 c 3
 470 45 370 -10 230 -10 c 3
 160 -10 105 0 55 25 c 1
 50 165 l 1
 100 170 l 1
 120 70 l 1
 155 45 195 37 240 37 c 3
 325 37 385 70 385 145 c 3
 385 325 50 235 50 480 c 3
 50 570 110 660 270 660 c 3
EndSplineSet
Validated: 1
EndChar

StartChar: T
Encoding: 84 84 54
GlifName: T_
Width: 560
VWidth: 0
Flags: HMW
AnchorPoint: "top" 280 650 basechar 0
AnchorPoint: "bottom" 280 0 basechar 0
LayerCount: 2
Fore
SplineSet
22 650 m 1
 538 650 l 5
 540 505 l 5
 500 500 l 5
 482 595 l 5
 402 610 l 25
 325 610 l 1
 325 127 l 1
 340 47 l 1
 425 22 l 25
 425 0 l 25
 135 0 l 25
 135 22 l 25
 220 47 l 25
 235 127 l 1
 235 610 l 1
 158 610 l 1
 78 595 l 1
 60 500 l 1
 20 505 l 1
 22 650 l 1
EndSplineSet
Validated: 1
EndChar

StartChar: X
Encoding: 88 88 55
GlifName: X_
Width: 630
VWidth: 0
Flags: HMW
LayerCount: 2
Back
SplineSet
267 560 m 29
 452 560 l 29
 452 540 l 29
 390 515 l 29
 336 455 l 13
 252 330 l 29
 216 345 l 29
 287 455 l 5
 314 515 l 29
 267 540 l 29
 267 560 l 29
160 215 m 5
 131 155 l 29
 178 130 l 29
 178 110 l 29
 -7 110 l 29
 -7 130 l 29
 55 155 l 29
 111 215 l 13
 196 340 l 29
 237 325 l 29
 160 215 l 5
211 445 m 21
 258 366 l 5
 352 225 l 5
 410 155 l 5
 465 130 l 29
 465 110 l 29
 247 110 l 29
 247 130 l 29
 287 155 l 5
 254 225 l 21
 197 317 l 5
 113 445 l 5
 55 515 l 5
 0 540 l 29
 0 560 l 29
 218 560 l 29
 218 540 l 29
 178 515 l 29
 211 445 l 21
EndSplineSet
Fore
SplineSet
395 650 m 25
 600 650 l 25
 600 628 l 25
 528 605 l 25
 474 545 l 9
 337 330 l 1
 300 345 l 1
 425 545 l 1
 452 605 l 25
 395 628 l 25
 395 650 l 25
281 340 m 1
 322 325 l 1
 177 105 l 1
 148 45 l 25
 205 22 l 25
 205 0 l 25
 0 0 l 25
 0 22 l 25
 72 45 l 25
 128 105 l 9
 281 340 l 1
15 650 m 25
 263 650 l 25
 263 628 l 25
 213 605 l 25
 246 535 l 17
 345 370 l 1
 502 115 l 1
 560 45 l 1
 625 22 l 25
 625 0 l 25
 377 0 l 25
 377 22 l 25
 427 45 l 1
 394 115 l 17
 277 310 l 1
 138 535 l 1
 80 605 l 1
 15 628 l 25
 15 650 l 25
EndSplineSet
Validated: 5
EndChar

StartChar: V
Encoding: 86 86 56
GlifName: V_
Width: 620
VWidth: 0
Flags: MW
LayerCount: 2
Back
SplineSet
-83 650 m 1
 143 650 l 1
 168 550 l 1
 323 117 l 1
 475 550 l 1
 500 650 l 1
 717 650 l 9
 717 628 l 1
 647 603 l 25
 632 523 l 17
 632 127 l 1
 647 47 l 25
 722 22 l 25
 722 0 l 25
 462 0 l 25
 462 22 l 25
 527 47 l 1
 542 127 l 1
 542 596 l 1
 369 110 l 1
 333 0 l 1
 268 0 l 1
 231 110 l 1
 52 585 l 1
 52 127 l 1
 67 47 l 1
 132 22 l 1
 132 0 l 17
 -88 0 l 1
 -88 22 l 1
 -13 47 l 25
 2 127 l 1
 2 523 l 17
 -13 603 l 25
 -83 628 l 1
 -83 650 l 1
EndSplineSet
Fore
SplineSet
344 -10 m 1
 274 -10 l 1
 240 95 l 1
 80 523 l 1
 40 603 l 1
 -20 628 l 25
 -20 650 l 25
 218 650 l 25
 218 628 l 25
 158 603 l 25
 178 523 l 25
 333 95 l 1
 483 523 l 1
 496 603 l 25
 432 628 l 25
 432 650 l 25
 640 650 l 25
 640 628 l 25
 576 603 l 25
 533 523 l 1
 380 95 l 1
 344 -10 l 1
EndSplineSet
Validated: 1
EndChar

StartChar: Z
Encoding: 90 90 57
GlifName: Z_
Width: 570
VWidth: 0
Flags: MW
AnchorPoint: "top" 280 650 basechar 0
AnchorPoint: "bottom" 280 0 basechar 0
LayerCount: 2
Fore
SplineSet
395 610 m 1
 196 610 l 1
 116 595 l 1
 100 495 l 1
 55 497 l 1
 60 650 l 17
 515 650 l 1
 515 630 l 1
 155 40 l 1
 384 40 l 1
 464 55 l 1
 485 155 l 1
 530 153 l 1
 520 0 l 17
 35 0 l 1
 35 20 l 1
 395 610 l 1
EndSplineSet
Validated: 1
EndChar

StartChar: W
Encoding: 87 87 58
GlifName: W_
Width: 960
VWidth: 0
Flags: MW
LayerCount: 2
Back
SplineSet
344 -10 m 5
 274 -10 l 5
 240 95 l 5
 80 523 l 5
 40 603 l 5
 -20 628 l 29
 -20 650 l 29
 218 650 l 29
 218 628 l 29
 158 603 l 29
 178 523 l 29
 333 95 l 5
 483 523 l 5
 496 603 l 29
 432 628 l 29
 432 650 l 29
 640 650 l 29
 640 628 l 29
 576 603 l 29
 533 523 l 5
 380 95 l 5
 344 -10 l 5
EndSplineSet
Fore
SplineSet
607 110 m 1
 480 503 l 1
 359 110 l 1
 330 -8 l 1
 250 -8 l 1
 217 110 l 1
 77 523 l 1
 40 603 l 1
 -20 628 l 25
 -20 650 l 25
 218 650 l 25
 218 628 l 25
 158 603 l 25
 175 523 l 1
 310 110 l 1
 434 510 l 1
 470 635 l 1
 535 635 l 1
 572 510 l 1
 705 110 l 1
 825 523 l 1
 836 603 l 25
 772 628 l 25
 772 650 l 25
 980 650 l 25
 980 628 l 25
 916 603 l 25
 875 523 l 1
 752 110 l 1
 720 -8 l 1
 640 -8 l 1
 607 110 l 1
EndSplineSet
Validated: 1
EndChar

StartChar: zero
Encoding: 48 48 61
GlifName: zero
Width: 520
VWidth: 0
Flags: MW
LayerCount: 2
Fore
SplineSet
250 595 m 3
 180 595 150 497 150 322 c 3
 150 132 185 35 270 35 c 3
 340 35 370 133 370 308 c 3
 370 498 335 595 250 595 c 3
265 -10 m 3
 120 -10 55 110 55 310 c 3
 55 510 130 640 255 640 c 7
 400 640 465 520 465 320 c 3
 465 120 390 -10 265 -10 c 3
EndSplineSet
Validated: 1
EndChar

StartChar: one
Encoding: 49 49 62
GlifName: one
Width: 520
VWidth: 0
Flags: MW
LayerCount: 2
Fore
SplineSet
220 500 m 25
 215 580 l 1
 90 598 l 25
 90 620 l 1
 315 640 l 1
 305 505 l 1
 305 130 l 1
 320 50 l 1
 440 22 l 25
 440 0 l 1
 70 0 l 1
 70 22 l 25
 205 50 l 1
 220 130 l 1
 220 500 l 25
EndSplineSet
Validated: 1
EndChar

StartChar: two
Encoding: 50 50 63
GlifName: two
Width: 520
Flags: MW
LayerCount: 2
Fore
SplineSet
235 640 m 3
 354 640 420 585 420 445 c 7
 420 300 246 137 155 75 c 5
 360 75 l 5
 450 90 l 5
 440 0 l 5
 60 0 l 5
 50 45 l 5
 200 147 330 280 330 435 c 7
 330 525 280 567 205 567 c 3
 142 567 101 536 72 503 c 1
 56 516 l 1
 78 567 139 640 235 640 c 3
EndSplineSet
Validated: 1
EndChar

StartChar: three
Encoding: 51 51 64
GlifName: three
Width: 520
VWidth: 0
Flags: MW
LayerCount: 2
Fore
SplineSet
200 295 m 1
 195 330 l 1
 285 350 325 390 325 460 c 3
 325 535 280 570 210 570 c 3
 145 570 112 533 82 503 c 1
 65 515 l 1
 90 565 140 640 245 640 c 3
 350 640 410 590 410 485 c 3
 410 410 345 355 295 340 c 1
 390 320 440 265 440 175 c 3
 440 35 310 -10 210 -10 c 3
 170 -10 115 -5 50 20 c 1
 80 115 l 1
 130 75 190 45 260 45 c 3
 315 45 355 80 355 140 c 3
 355 225 300 285 200 295 c 1
EndSplineSet
Validated: 1
EndChar

StartChar: four
Encoding: 52 52 65
GlifName: four
Width: 520
Flags: MW
LayerCount: 2
Fore
SplineSet
480 225 m 1
 470 160 l 1
 370 160 l 1
 370 117 l 1
 385 47 l 25
 460 22 l 25
 460 0 l 25
 195 0 l 25
 195 22 l 25
 270 47 l 1
 285 117 l 1
 285 160 l 1
 25 160 l 1
 25 180 l 1
 295 630 l 1
 370 630 l 1
 370 205 l 1
 480 225 l 1
285 535 m 1
 90 210 l 1
 285 210 l 1
 285 535 l 1
EndSplineSet
Validated: 1
EndChar

StartChar: five
Encoding: 53 53 66
GlifName: five
Width: 520
VWidth: 0
Flags: MW
LayerCount: 2
Back
SplineSet
350 630 m 1
 430 640 l 1
 420 555 l 1
 155 555 l 1
 148 390 l 1
 398 390 450 285 450 195 c 3
 450 55 330 -10 230 -10 c 3
 190 -10 125 -5 60 20 c 1
 90 115 l 1
 145 75 210 50 275 50 c 3
 330 50 375 90 375 150 c 3
 375 235 315 315 95 325 c 1
 110 630 l 25
 350 630 l 1
EndSplineSet
Fore
SplineSet
430 640 m 1
 420 555 l 1
 155 555 l 5
 148 390 l 5
 168 392 190 393 205 393 c 7
 405 393 450 290 450 195 c 7
 450 55 330 -10 230 -10 c 7
 190 -10 125 -5 60 20 c 5
 90 115 l 5
 145 75 210 50 275 50 c 7
 330 50 375 90 375 150 c 7
 375 245 325 325 95 325 c 5
 110 630 l 29
 350 630 l 1
 430 640 l 1
EndSplineSet
Validated: 1
EndChar

StartChar: six
Encoding: 54 54 67
GlifName: six
Width: 520
Flags: HMW
LayerCount: 2
Fore
SplineSet
390 640 m 9
 400 610 l 17
 260 555 150 450 150 260 c 3
 150 105 205 35 265 35 c 3
 330 35 380 85 380 190 c 3
 380 295 341 332 265 332 c 3
 219 332 170 300 150 260 c 1
 145 290 l 1
 170 345 229 405 302 405 c 3
 405 405 465 339 465 207 c 3
 465 77 380 -10 260 -10 c 3
 140 -10 60 69 60 244 c 3
 60 444 205 595 390 640 c 9
EndSplineSet
EndChar

StartChar: nine
Encoding: 57 57 68
GlifName: nine
Width: 520
Flags: HMW
LayerCount: 2
Fore
SplineSet
135 -10 m 9
 130 20 l 17
 255 60 370 190 370 375 c 3
 370 530 315 595 255 595 c 3
 195 595 150 550 150 450 c 3
 150 350 189 308 260 308 c 3
 306 308 350 335 370 375 c 1
 375 345 l 1
 350 290 291 240 223 240 c 3
 135 240 60 301 60 428 c 3
 60 553 145 640 260 640 c 3
 380 640 460 568 460 386 c 3
 460 173 295 15 135 -10 c 9
EndSplineSet
EndChar

StartChar: seven
Encoding: 55 55 69
GlifName: seven
Width: 520
VWidth: 0
Flags: MW
LayerCount: 2
Fore
SplineSet
75 630 m 1
 450 630 l 1
 455 610 l 1
 285 170 l 1
 235 -15 l 9
 135 15 l 1
 220 190 l 1
 390 555 l 9
 175 555 l 1
 65 545 l 1
 75 630 l 1
EndSplineSet
Validated: 1
EndChar

StartChar: eight
Encoding: 56 56 70
GlifName: eight
Width: 520
VWidth: 0
Flags: MW
LayerCount: 2
Fore
SplineSet
245 -10 m 7
 135 -10 65 55 65 145 c 7
 65 240 130 295 215 320 c 5
 230 295 l 5
 170 265 140 225 140 150 c 7
 140 80 200 35 260 35 c 7
 330 35 370 80 370 150 c 7
 370 220 336 256 230 295 c 4
 126 333 70 385 70 480 c 7
 70 570 140 640 260 640 c 7
 365 640 425 570 425 495 c 7
 425 420 370 360 300 340 c 5
 285 365 l 5
 335 395 350 435 350 495 c 7
 350 550 310 595 250 595 c 7
 180 595 150 550 150 495 c 7
 150 430 186 399 285 365 c 4
 396 327 455 265 455 175 c 7
 455 65 380 -10 245 -10 c 7
EndSplineSet
Validated: 5
EndChar

StartChar: quoteright
Encoding: 8217 8217 71
GlifName: quoteright
Width: 240
VWidth: 0
Flags: MW
LayerCount: 2
Fore
SplineSet
50 616 m 3
 50 651 75 680 115 680 c 3
 155 680 185 648 185 599 c 3
 185 515 134 461 76 431 c 9
 56 466 l 1
 89 482 122 508 115 560 c 1
 75 560 50 584 50 616 c 3
EndSplineSet
Validated: 33
EndChar

StartChar: endash
Encoding: 8211 8211 75
GlifName: endash
Width: 500
VWidth: 0
Flags: MW
LayerCount: 2
Fore
SplineSet
0 275 m 5
 500 275 l 5
 500 225 l 5
 0 225 l 5
 0 275 l 5
EndSplineSet
Validated: 1
Colour: ff00ff
EndChar

StartChar: emdash
Encoding: 8212 8212 76
GlifName: emdash
Width: 1000
VWidth: 0
Flags: MW
LayerCount: 2
Fore
SplineSet
0 275 m 1
 1000 275 l 1
 1000 225 l 5
 0 225 l 5
 0 275 l 1
EndSplineSet
Validated: 1
Colour: ff00ff
EndChar

StartChar: parenleft
Encoding: 40 40 77
GlifName: parenleft
Width: 325
VWidth: 0
Flags: MW
LayerCount: 2
Fore
SplineSet
125 265 m 3
 125 85 195 -65 285 -140 c 1
 270 -160 l 1
 120 -80 40 85 40 265 c 3
 40 445 120 610 270 690 c 1
 285 670 l 1
 195 595 125 445 125 265 c 3
EndSplineSet
Validated: 1
EndChar

StartChar: plus
Encoding: 43 43 79
GlifName: plus
Width: 600
VWidth: 0
Flags: MW
LayerCount: 2
Fore
SplineSet
50 275 m 5
 550 275 l 5
 550 225 l 5
 50 225 l 5
 50 275 l 5
275 500 m 1
 325 500 l 1
 325 0 l 1
 275 0 l 1
 275 500 l 1
EndSplineSet
Validated: 5
Colour: ff00ff
EndChar

StartChar: multiply
Encoding: 215 215 80
GlifName: multiply
Width: 600
VWidth: 0
Flags: MW
LayerCount: 2
Fore
SplineSet
65 48 m 5
 500 487 l 5
 535 452 l 5
 100 13 l 5
 65 48 l 5
65 452 m 5
 100 487 l 5
 535 48 l 5
 500 13 l 5
 65 452 l 5
EndSplineSet
Validated: 5
Colour: ff00ff
EndChar

StartChar: less
Encoding: 60 60 81
GlifName: less
Width: 475
VWidth: 0
Flags: MW
LayerCount: 2
Fore
SplineSet
100 250 m 1
 340 490 l 1
 375 455 l 1
 170 250 l 1
 375 45 l 1
 340 10 l 1
 100 250 l 1
EndSplineSet
Validated: 1
Colour: ff00ff
EndChar

StartChar: minus
Encoding: 8722 8722 83
GlifName: minus
Width: 600
VWidth: 0
Flags: MW
LayerCount: 2
Fore
SplineSet
50 275 m 5
 550 275 l 5
 550 225 l 5
 50 225 l 5
 50 275 l 5
EndSplineSet
Validated: 1
Colour: ff00ff
EndChar

StartChar: divide
Encoding: 247 247 84
GlifName: divide
Width: 600
VWidth: 0
Flags: MW
LayerCount: 2
Fore
SplineSet
245 85 m 3
 245 117 268 140 300 140 c 3
 332 140 355 117 355 85 c 3
 355 53 332 30 300 30 c 3
 268 30 245 53 245 85 c 3
245 415 m 3
 245 447 268 470 300 470 c 3
 332 470 355 447 355 415 c 3
 355 383 332 360 300 360 c 3
 268 360 245 383 245 415 c 3
50 275 m 1
 550 275 l 1
 550 225 l 1
 50 225 l 1
 50 275 l 1
EndSplineSet
Validated: 1
Colour: ff00ff
EndChar

StartChar: equal
Encoding: 61 61 85
GlifName: equal
Width: 540
VWidth: 0
Flags: MW
LayerCount: 2
Fore
SplineSet
50 370 m 1
 490 370 l 1
 490 320 l 1
 50 320 l 1
 50 370 l 1
50 180 m 1
 490 180 l 1
 490 130 l 1
 50 130 l 1
 50 180 l 1
EndSplineSet
Validated: 1
EndChar

StartChar: question
Encoding: 63 63 86
GlifName: question
Width: 460
Flags: MW
LayerCount: 2
Back
SplineSet
130 295 m 5
 220 335 290 365 290 465 c 7
 290 550 240 587 165 587 c 7
 102 587 61 556 32 523 c 5
 16 536 l 5
 38 587 99 660 195 660 c 7
 314 660 380 605 380 470 c 7
 380 325 255 290 205 270 c 5
 215 200 l 5
 170 190 l 5
 130 295 l 5
EndSplineSet
Fore
SplineSet
200 660 m 7
 330 660 400 580 400 460 c 3
 400 360 315 300 200 260 c 1
 200 205 l 1
 175 200 l 25
 135 340 l 1
 250 365 345 400 345 475 c 3
 345 535 295 570 230 570 c 3
 175 570 145 565 90 545 c 1
 60 640 l 1
 125 655 160 660 200 660 c 7
EndSplineSet
Refer: 29 46 N 1 0 0 1 60 0 2
Validated: 1
EndChar

StartChar: dollar
Encoding: 36 36 87
GlifName: dollar
Width: 520
VWidth: 0
Flags: HMW
LayerCount: 2
Fore
SplineSet
270 635 m 3
 360 635 405 619 450 600 c 1
 450 475 l 1
 405 470 l 1
 390 555 l 1
 355 575 325 588 255 588 c 3
 180 588 130 550 130 495 c 3
 130 320 470 420 470 190 c 3
 470 55 370 0 230 0 c 3
 160 0 105 10 55 35 c 1
 50 175 l 1
 100 180 l 1
 120 80 l 1
 155 55 195 47 240 47 c 3
 325 47 385 80 385 150 c 3
 385 325 50 230 50 465 c 3
 50 550 110 635 270 635 c 3
210 775 m 1
 290 775 l 1
 275 625 l 1
 225 625 l 1
 210 775 l 1
220 10 m 1
 270 10 l 1
 285 -140 l 1
 205 -140 l 1
 220 10 l 1
EndSplineSet
Validated: 5
EndChar

StartChar: bar
Encoding: 124 124 88
GlifName: bar
Width: 250
VWidth: 0
Flags: MW
LayerCount: 2
Fore
SplineSet
100 790 m 5
 150 790 l 5
 150 -210 l 5
 100 -210 l 5
 100 790 l 5
EndSplineSet
Validated: 1
Colour: ff00ff
EndChar

StartChar: slash
Encoding: 47 47 89
GlifName: slash
Width: 330
VWidth: 0
Flags: MW
LayerCount: 2
Fore
SplineSet
264 678 m 5
 310 661 l 5
 66 -28 l 5
 20 -11 l 5
 264 678 l 5
EndSplineSet
Validated: 1
Colour: ff00ff
EndChar

StartChar: numbersign
Encoding: 35 35 90
GlifName: numbersign
Width: 520
VWidth: 0
Flags: MW
LayerCount: 2
Fore
SplineSet
45 450 m 1
 510 450 l 1
 510 400 l 1
 45 400 l 1
 45 450 l 1
10 230 m 1
 475 230 l 1
 475 180 l 1
 10 180 l 1
 10 230 l 1
386 639 m 1
 435 631 l 1
 322 -9 l 1
 273 -1 l 1
 386 639 l 1
198 639 m 1
 247 631 l 1
 134 -9 l 1
 85 -1 l 1
 198 639 l 1
EndSplineSet
Validated: 5
Colour: ff00ff
EndChar

StartChar: percent
Encoding: 37 37 91
GlifName: percent
Width: 900
VWidth: 0
Flags: MW
LayerCount: 2
Fore
SplineSet
215 595 m 3
 155 595 120 545 120 460 c 3
 120 370 155 315 220 315 c 3
 280 315 315 365 315 450 c 3
 315 540 280 595 215 595 c 3
220 270 m 3
 110 270 50 340 50 450 c 3
 50 560 115 640 215 640 c 3
 325 640 385 570 385 460 c 3
 385 350 320 270 220 270 c 3
680 315 m 7
 620 315 585 265 585 180 c 7
 585 90 620 35 685 35 c 7
 745 35 780 85 780 170 c 7
 780 260 745 315 680 315 c 7
685 -10 m 7
 575 -10 515 60 515 170 c 7
 515 280 580 360 680 360 c 7
 790 360 850 290 850 180 c 7
 850 70 785 -10 685 -10 c 7
553 640 m 1
 600 621 l 1
 347 -10 l 1
 300 9 l 1
 553 640 l 1
EndSplineSet
Validated: 1
Colour: ff00ff
EndChar

StartChar: ampersand
Encoding: 38 38 92
GlifName: ampersand
Width: 650
VWidth: 0
Flags: MW
LayerCount: 2
Fore
SplineSet
275 375 m 1
 470 125 l 1
 549 45 l 1
 620 22 l 25
 620 0 l 1
 440 0 l 25
 370 105 l 1
 195 340 l 1
 150 400 120 445 120 515 c 3
 120 580 175 640 285 640 c 3
 390 640 430 580 430 505 c 3
 430 430 360 375 290 350 c 1
 275 375 l 1
 325 410 355 445 355 505 c 3
 355 555 325 595 275 595 c 3
 225 595 200 570 200 530 c 3
 200 480 220 455 275 375 c 1
400 65 m 17
 370 25 315 -10 230 -10 c 3
 130 -10 50 45 50 150 c 3
 50 245 110 310 195 340 c 1
 215 315 l 1
 160 280 140 235 140 185 c 3
 140 115 180 60 260 60 c 3
 315 60 345 75 370 105 c 9
 458 245 l 1
 480 300 l 25
 435 328 l 25
 435 350 l 25
 620 350 l 25
 620 328 l 25
 552 300 l 25
 511 245 l 1
 400 65 l 17
EndSplineSet
Validated: 5
EndChar

StartChar: asterisk
Encoding: 42 42 93
GlifName: asterisk
Width: 520
VWidth: 0
Flags: HMW
LayerCount: 2
Back
SplineSet
395 322 m 5
 325 282 l 5
 255 455 l 5
 280 470 l 5
 395 322 l 5
125 628 m 5
 195 668 l 5
 265 495 l 5
 240 480 l 5
 125 628 l 5
325 668 m 5
 395 628 l 5
 280 480 l 5
 255 495 l 5
 325 668 l 5
195 282 m 5
 125 322 l 5
 240 470 l 5
 265 455 l 5
 195 282 l 5
460 515 m 5
 460 435 l 5
 275 460 l 5
 275 490 l 5
 460 515 l 5
60 435 m 5
 60 515 l 5
 245 490 l 5
 245 460 l 5
 60 435 l 5
EndSplineSet
Fore
SplineSet
60 435 m 1
 60 515 l 1
 231 492 l 1
 125 628 l 1
 195 668 l 1
 260 507 l 1
 325 668 l 1
 395 628 l 1
 289 492 l 1
 460 515 l 1
 460 435 l 1
 289 458 l 1
 395 322 l 1
 325 282 l 1
 260 443 l 1
 195 282 l 1
 125 322 l 1
 231 458 l 1
 60 435 l 1
EndSplineSet
Validated: 1
EndChar

StartChar: bracketleft
Encoding: 91 91 94
GlifName: bracketleft
Width: 325
VWidth: 0
Flags: MW
LayerCount: 2
Fore
SplineSet
90 -145 m 25
 100 -45 l 1
 100 580 l 1
 90 680 l 25
 285 680 l 1
 285 655 l 25
 190 633 l 25
 175 553 l 21
 175 -18 l 1
 190 -98 l 25
 285 -120 l 25
 285 -145 l 1
 90 -145 l 25
EndSplineSet
Validated: 1
EndChar

StartChar: backslash
Encoding: 92 92 95
GlifName: backslash
Width: 330
VWidth: 0
Flags: MW
LayerCount: 2
Fore
SplineSet
66 678 m 1
 310 -11 l 1
 264 -28 l 1
 20 661 l 1
 66 678 l 1
EndSplineSet
Validated: 1
Colour: ff00ff
EndChar

StartChar: acircumflex
Encoding: 226 226 97
GlifName: acircumflex
Width: 465
VWidth: 0
Flags: HMW
LayerCount: 2
Back
SplineSet
230 680 m 5
 470 440 l 5
 434 406 l 5
 230 610 l 5
 24 406 l 5
 -10 440 l 5
 230 680 l 5
EndSplineSet
Fore
Refer: 199 770 N 1 0 0 1 465 0 2
Refer: 10 97 N 1 0 0 1 0 0 3
Colour: d1b0ff
EndChar

StartChar: asciicircum
Encoding: 94 94 98
GlifName: asciicircum
Width: 520
VWidth: 0
Flags: MW
LayerCount: 2
Fore
SplineSet
260 680 m 1
 440 510 l 1
 415 480 l 1
 260 590 l 1
 105 480 l 1
 80 510 l 1
 260 680 l 1
EndSplineSet
Validated: 1
EndChar

StartChar: underscore
Encoding: 95 95 99
GlifName: underscore
Width: 500
VWidth: 0
Flags: MW
LayerCount: 2
Fore
SplineSet
0 0 m 1
 500 0 l 1
 500 -50 l 1
 0 -50 l 1
 0 0 l 1
EndSplineSet
Validated: 1
Colour: ff00ff
EndChar

StartChar: grave
Encoding: 96 96 101
GlifName: grave
Width: 455
VWidth: 0
Flags: MW
LayerCount: 2
Fore
SplineSet
130 680 m 1
 355 550 l 1
 340 515 l 1
 100 610 l 1
 130 680 l 1
EndSplineSet
Validated: 1
EndChar

StartChar: braceleft
Encoding: 123 123 102
GlifName: braceleft
Width: 325
VWidth: 0
Flags: MW
LayerCount: 2
Fore
SplineSet
50 250 m 9
 50 280 l 17
 110 290 127.082758621 315.006896552 120 400 c 10
 110 520 l 18
 99.4275862069 646.868965517 145 690 275 690 c 1
 275 665 l 1
 205 655 180.133873238 628.661267623 190 530 c 2
 200 430 l 18
 211.3450263 316.549737005 160 280 115 265 c 1
 160 250 211.344726562 213.450195312 200 100 c 10
 190 0 l 2
 180.133789062 -98.6611328125 205 -125 275 -135 c 1
 275 -160 l 1
 145 -160 99.427734375 -116.869140625 110 10 c 10
 120 130 l 18
 127.083007812 214.993164062 110 240 50 250 c 9
EndSplineSet
Validated: 33
EndChar

StartChar: degree
Encoding: 176 176 104
GlifName: degree
Width: 430
VWidth: 0
Flags: MW
LayerCount: 2
Fore
SplineSet
215 635 m 7
 155 635 115 595 115 520 c 7
 115 440 155 395 215 395 c 7
 275 395 315 435 315 510 c 7
 315 590 275 635 215 635 c 7
215 350 m 7
 110 350 50 415 50 515 c 7
 50 610 115 680 215 680 c 7
 320 680 380 615 380 515 c 7
 380 420 315 350 215 350 c 7
EndSplineSet
Validated: 1
EndChar

StartChar: .notdef
Encoding: 65536 -1 105
GlifName: _notdef
Width: 500
VWidth: 0
Flags: MW
LayerCount: 2
Back
SplineSet
207 169 m 0
 211 165 218 166 221 171 c 0
 227 179 229 184 229 195 c 0
 229 221 210 240 176 240 c 0
 143 240 121 219 121 194 c 0
 121 160 147 145 174 144 c 0
 196 143 217 136 217 111 c 0
 217 90 203 76 177 76 c 0
 150 76 135 90 135 108 c 0
 135 118 136 121 140 126 c 0
 144 130 147 135 144 140 c 0
 141 145 134 147 130 144 c 0
 117 135 115 124 115 108 c 0
 115 76 142 57 177 57 c 0
 211 57 237 78 237 111 c 0
 237 151 203 162 174 163 c 0
 155 164 141 176 141 195 c 0
 141 209 151 221 175 221 c 0
 201 221 209 206 209 195 c 0
 209 189 208 187 206 184 c 0
 203 180 203 173 207 169 c 0
326 115 m 0
 331 114 336 119 337 124 c 0
 339 140 324 143 316 143 c 0
 295 143 283 156 283 179 c 0
 283 206 299 221 329 221 c 0
 354 221 371 202 371 176 c 0
 371 152 352 126 317 72 c 0
 314 67 315 62 320 59 c 0
 325 56 332 59 335 64 c 0
 368 116 391 142 391 176 c 0
 391 212 366 240 329 240 c 0
 291 240 263 218 263 179 c 0
 263 146 283 124 316 124 c 0
 317 124 316 124 317 124 c 1
 318 121 321 116 326 115 c 0
115 20 m 1
 115 0 l 1
 385 0 l 1
 385 20 l 1
 115 20 l 1
566 292 m 17
 560 299 557 305 557 315 c 3
 557 333 573 350 601 350 c 3
 626 350 642 334 642 315 c 3
 642 288 625 277 602 277 c 0
 576.999741746 277 550 263 550 231 c 3
 550 204 570 187 600 187 c 3
 630 187 651 203 651 228 c 3
 651 242 647 253 635 260 c 1033
737 240 m 17
 738 247 733 249 726 249 c 3
 698 249 680 270 680 298 c 3
 680 331 702 350 736 350 c 3
 767 350 788 327 788 296 c 3
 788 267 767 240 733 187 c 1024
380 280 m 1xb0
 348 280 l 1
 314 154 l 1
 278 280 l 1
 246 280 l 1
 231 107 l 1
 254 107 l 1
 260 183 l 2
 262 208 263 236 263 256 c 1xd0
 302 127 l 1
 324 127 l 1
 362 255 l 1
 362 241 364 212 366 185 c 2
 372 107 l 1
 395 107 l 1
 380 280 l 1xb0
213 280 m 1
 186 280 l 1
 130 199 l 1
 188 107 l 1
 218 107 l 1
 153 201 l 1
 213 280 l 1
129 280 m 1
 105 280 l 1
 105 107 l 1
 129 107 l 1
 129 280 l 1
115 70 m 1
 115 50 l 1
 385 50 l 1
 385 70 l 1
 115 70 l 1
126 162 m 1
 162 126 l 1
 374 338 l 1
 338 374 l 1
 126 162 l 1
126 338 m 1
 338 126 l 1
 374 162 l 1
 162 374 l 1
 126 338 l 1
100 690 m 1
 100 -110 l 1
 400 -110 l 1
 400 690 l 1
 100 690 l 1
EndSplineSet
Fore
SplineSet
311 231 m 0
 291 231 273 224 258 210 c 1
 274 192 l 1
 284 202 295 207 308 207 c 0
 323 207 333 199 333 185 c 0
 333 169 322 159 306 159 c 2
 297 159 l 1
 293 137 l 1
 306 137 l 2
 325 137 337 130 337 110 c 0
 337 92 325 81 307 81 c 0
 294 81 283 87 272 98 c 1
 254 81 l 1
 267 65 286 57 309 57 c 0
 347 57 370 79 370 108 c 0
 370 134 353 147 332 149 c 1
 352 154 364 168 364 189 c 0
 364 212 346 231 311 231 c 0
202 228 m 1
 174 228 l 1
 119 194 l 1
 133 172 l 1
 170 195 l 1
 170 59 l 1
 202 59 l 1
 202 228 l 1
135 25 m 1
 135 0 l 1
 370 0 l 1
 370 25 l 1
 135 25 l 1
41 -160 m 1
 40 740 l 1
 460 740 l 1
 460 -160 l 1
 41 -160 l 1
126 418 m 1
 162 382 l 1
 250 470 l 1
 338 382 l 1
 374 418 l 1
 286 506 l 1
 374 594 l 1
 338 630 l 1
 250 542 l 1
 162 630 l 1
 126 594 l 1
 214 506 l 1
 126 418 l 1
EndSplineSet
Validated: 1
EndChar

StartChar: AE
Encoding: 198 198 112
GlifName: A_E_
Width: 870
VWidth: 0
Flags: HMW
AnchorPoint: "bottom" 445 0 basechar 0
AnchorPoint: "top" 515 650 basechar 0
LayerCount: 2
Fore
SplineSet
176 275 m 1
 439 275 l 1
 439 235 l 1
 176 235 l 1
 176 275 l 1
260 650 m 1
 360 605 l 1
 152 127 l 1
 129 47 l 25
 193 22 l 25
 193 0 l 25
 -15 0 l 25
 -15 22 l 25
 49 47 l 25
 102 127 l 1
 295 560 l 1
 315 615 l 1
 260 628 l 1
 260 650 l 1
505 350 m 1
 580 350 l 1
 660 360 l 1
 675 440 l 1
 707 440 l 1
 707 220 l 1
 675 220 l 1
 660 300 l 1
 580 310 l 25
 505 310 l 1
 505 350 l 1
260 650 m 1
 798 650 l 1
 805 506 l 1
 765 502 l 1
 742 595 l 1
 662 610 l 25
 505 610 l 1
 505 55 l 1
 585 40 l 1
 682 40 l 1
 762 55 l 1
 787 148 l 1
 828 143 l 1
 818 0 l 25
 325 0 l 1
 325 22 l 25
 400 47 l 25
 415 127 l 1
 415 595 l 25
 360 605 l 1
 260 650 l 1
EndSplineSet
Validated: 5
EndChar

StartChar: Eth
Encoding: 208 208 122
GlifName: E_th
Width: 680
VWidth: 0
Flags: HMW
LayerCount: 2
Fore
SplineSet
59 350 m 5
 330 350 l 5
 330 300 l 5
 20 300 l 5
 20 315 l 5
 59 350 l 5
EndSplineSet
Refer: 36 68 N 1 0 0 1 0 0 2
Validated: 5
EndChar

StartChar: Oslash
Encoding: 216 216 129
GlifName: O_slash
Width: 710
VWidth: 0
Flags: HMW
LayerCount: 2
Fore
SplineSet
566 725 m 1
 610 700 l 1
 144 -75 l 1
 100 -50 l 1
 566 725 l 1
EndSplineSet
Refer: 35 79 N 1 0 0 1 0 0 2
Validated: 5
EndChar

StartChar: Thorn
Encoding: 222 222 135
GlifName: T_horn
Width: 550
VWidth: 0
Flags: HMW
LayerCount: 2
Fore
SplineSet
210 500 m 1
 210 540 l 5
 295 540 l 2
 450 540 520 470 520 360 c 3
 520 260 430 160 280 160 c 2
 210 160 l 1
 210 205 l 1
 270 200 l 17
 364 200 420 260 420 360 c 3
 420 450 377 500 270 500 c 2
 210 500 l 1
35 650 m 1
 225 650 l 25
 210 540 l 5
 210 500 l 1
 210 127 l 1
 225 47 l 25
 300 22 l 25
 300 0 l 25
 30 0 l 25
 30 22 l 25
 105 47 l 25
 120 127 l 1
 120 523 l 17
 105 603 l 25
 35 628 l 25
 35 650 l 1
EndSplineSet
Validated: 5
EndChar

StartChar: germandbls
Encoding: 223 223 136
GlifName: germandbls
Width: 580
VWidth: 0
Flags: HMW
LayerCount: 2
Back
SplineSet
275 630 m 3
 200 630 177 588 177 556 c 3
 177 521 180 493 180 450 c 3
 180 115 l 1
 200 0 l 25
 20 0 l 1
 20 20 l 25
 80 45 l 25
 95 115 l 1
 95 450 l 3
 95 565 170 690 305 690 c 3
 405 690 460 640 460 550 c 3
 460 485 423 453 393 433 c 1
 358 413 335 395 335 365 c 3
 335 330 358.608508025 311.243055047 425 280 c 0
 493 248 540 200 540 135 c 3
 540 35 465 -10 365 -10 c 3
 325 -10 295 0 265 10 c 1
 260 115 l 1
 305 120 l 1
 320 50 l 1
 340 40 365 35 385 35 c 3
 420 35 465 50 465 105 c 3
 465 150 435 171 370 205 c 0
 300.788112738 241.203141029 265 270 265 330 c 3
 265 390 325 435 370 460 c 1
 382 475 385 495 385 515 c 3
 385 580 350 630 275 630 c 3
EndSplineSet
Fore
SplineSet
465 550 m 3
 465 450 340 410 340 350 c 3
 340 270 530 300 530 145 c 3
 530 35 435 -10 325 -10 c 3
 300 -10 265 -5 250 0 c 1
 245 105 l 1
 290 110 l 1
 310 40 l 1
 325 36 330 35 345 35 c 3
 405 35 450 60 450 115 c 3
 450 225 270 195 270 315 c 3
 270 395 380 435 380 515 c 3
 380 575 340 620 275 620 c 3
 200 620 175 575 175 535 c 3
 175 505 180 493 180 450 c 3
 180 115 l 1
 190 0 l 25
 20 0 l 1
 20 20 l 25
 80 45 l 25
 95 115 l 1
 95 450 l 3
 95 565 170 680 305 680 c 3
 405 680 465 630 465 550 c 3
EndSplineSet
Validated: 1
EndChar

StartChar: ae
Encoding: 230 230 142
GlifName: ae
Width: 675
VWidth: 0
Flags: HMW
AnchorPoint: "top" 220 450 basechar 0
AnchorPoint: "bottom" 225 0 basechar 0
LayerCount: 2
Fore
SplineSet
290 263 m 9
 290 228 l 17
 155 218 130 185 130 127 c 3
 130 79 153 54 197 54 c 3
 237 54 295 88 295 175 c 1
 330 145 l 1
 325 96 282 -10 162 -10 c 3
 79 -10 35 36 35 105 c 3
 35 190 97 253 290 263 c 9
477 460 m 3
 586 460 635 394 635 282 c 1
 633 253 l 1
 369 233 l 1
 369 268 l 1
 477 278 l 1
 542 293 l 1
 542 369 523 417 465 417 c 3
 400 417 375 343 375 279 c 3
 375 129 417 54 511 54 c 3
 549 54 598 65 626 91 c 1
 640 78 l 1
 601 21 554 -10 478 -10 c 3
 341 -10 290 83 290 220 c 2
 290 275 l 2
 290 358 255 392 190 392 c 3
 137 392 106 371 77 343 c 1
 61 356 l 1
 83 407 135 460 220 460 c 3
 282 460 330 435 345 385 c 1
 370 425 417 460 477 460 c 3
EndSplineSet
Validated: 5
EndChar

StartChar: eth
Encoding: 240 240 151
GlifName: eth
Width: 500
VWidth: 0
Flags: HMW
LayerCount: 2
Fore
SplineSet
385 680 m 1
 410 630 l 1
 135 500 l 1
 115 540 l 1
 385 680 l 1
230 -10 m 3
 120 -10 35 66 35 205 c 3
 35 342 111 455 247 455 c 3
 297 455 338 439 360 419 c 9
 355 380 l 17
 332 399 302 410 265 410 c 3
 187 410 125 367 125 227 c 3
 125 102 180 35 250 35 c 3
 310 35 365 90 365 250 c 3
 365 430 305 570 155 650 c 9
 175 680 l 17
 355 620 455 475 455 275 c 3
 455 75 360 -10 230 -10 c 3
EndSplineSet
Validated: 5
EndChar

StartChar: oslash
Encoding: 248 248 158
GlifName: oslash
Width: 510
VWidth: 0
Flags: HMW
LayerCount: 2
Fore
SplineSet
397 521 m 5
 441 496 l 5
 111 -75 l 5
 67 -50 l 5
 397 521 l 5
245 415 m 3
 166 415 130 343 130 232 c 3
 130 111 173 35 265 35 c 3
 344 35 380 107 380 218 c 3
 380 339 337 415 245 415 c 3
258 -10 m 3
 110 -10 35 83 35 220 c 3
 35 357 120 460 252 460 c 3
 400 460 475 367 475 230 c 3
 475 93 390 -10 258 -10 c 3
EndSplineSet
Validated: 5
EndChar

StartChar: thorn
Encoding: 254 254 164
GlifName: thorn
Width: 515
VWidth: 0
Flags: HMW
LayerCount: 2
Fore
SplineSet
175 680 m 1
 165 560 l 9
 160 336 l 1
 165 301 l 1
 165 55 l 1
 160 11 l 1
 165 -95 l 1
 180 -165 l 1
 250 -190 l 25
 250 -210 l 25
 10 -210 l 25
 10 -190 l 25
 65 -165 l 1
 80 -95 l 17
 80 555 l 1
 65 625 l 1
 10 640 l 25
 10 660 l 1
 175 680 l 1
317 460 m 3
 415 460 480 384 480 245 c 3
 480 108 399 -5 258 -5 c 3
 213 -5 187 1 160 11 c 9
 165 55 l 17
 188 45 213 40 250 40 c 3
 328 40 390 83 390 223 c 3
 390 335 346 387 275 387 c 3
 229 387 186 353 165 301 c 1
 160 336 l 1
 184 404 230 460 317 460 c 3
EndSplineSet
Validated: 5
EndChar

StartChar: cent
Encoding: 162 162 167
GlifName: cent
Width: 440
VWidth: 0
Flags: HMW
LayerCount: 2
Fore
SplineSet
200 590 m 1
 280 590 l 1
 265 450 l 1
 215 450 l 1
 200 590 l 1
210 0 m 5
 260 0 l 5
 275 -140 l 5
 195 -140 l 5
 210 0 l 5
EndSplineSet
Refer: 9 99 N 1 0 0 1 0 0 2
EndChar

StartChar: sterling
Encoding: 163 163 168
GlifName: sterling
Width: 520
VWidth: 0
Flags: HMW
LayerCount: 2
Fore
SplineSet
345 350 m 1
 345 300 l 1
 40 300 l 1
 40 315 l 1
 80 350 l 1
 345 350 l 1
145 5 m 1
 30 -10 l 1
 25 10 l 1
 90 45 l 1
 125 115 l 1
 125 410 l 2
 125 515 190 640 315 640 c 3
 365 640 420 625 440 615 c 1
 410 530 l 1
 380 545 330 565 285 565 c 3
 220 565 202 543 202 511 c 3
 202 476 210 428 210 385 c 2
 210 300 l 1
 185 115 l 1
 160 60 l 1
 365 70 l 1
 470 100 l 1
 460 -10 l 1
 145 5 l 1
EndSplineSet
Validated: 5
EndChar

StartChar: Euro
Encoding: 8364 8364 169
GlifName: E_uro
Width: 520
VWidth: 0
Flags: HMW
LayerCount: 2
Fore
SplineSet
350 275 m 1
 350 225 l 1
 0 225 l 1
 0 240 l 1
 40 275 l 1
 350 275 l 1
350 400 m 1
 350 350 l 1
 0 350 l 1
 0 365 l 1
 40 400 l 1
 350 400 l 1
335 37 m 7
 375 37 390 40 425 55 c 5
 439 145 l 5
 485 140 l 5
 475 10 l 5
 425 -5 395 -10 335 -10 c 7
 145 -10 60 110 60 310 c 7
 60 510 155 640 325 640 c 7
 385 640 420 635 470 620 c 5
 475 490 l 5
 430 487 l 5
 415 570 l 5
 385 585 370 593 310 593 c 7
 200 593 160 487 160 322 c 7
 160 142 205 37 335 37 c 7
EndSplineSet
Validated: 5
EndChar

StartChar: yen
Encoding: 165 165 170
GlifName: yen
Width: 520
VWidth: 0
Flags: HMW
LayerCount: 2
Fore
SplineSet
430 180 m 1
 430 130 l 1
 80 130 l 1
 80 145 l 1
 120 180 l 1
 430 180 l 1
430 305 m 1
 430 255 l 1
 80 255 l 1
 80 270 l 1
 120 305 l 1
 430 305 l 1
225 255 m 1
 295 255 l 1
 300 130 l 1
 320 47 l 25
 395 22 l 25
 395 0 l 25
 125 0 l 25
 125 22 l 25
 200 47 l 25
 220 130 l 1
 225 255 l 1
0 630 m 25
 230 630 l 25
 230 608 l 25
 180 583 l 25
 209 513 l 1
 285 364 l 1
 353 513 l 1
 375 583 l 25
 321 608 l 25
 321 630 l 25
 520 630 l 25
 520 608 l 25
 456 583 l 25
 404 513 l 1
 300 305 l 1
 220 305 l 1
 109 513 l 1
 60 583 l 1
 0 608 l 25
 0 630 l 25
EndSplineSet
Validated: 5
EndChar

StartChar: section
Encoding: 167 167 172
GlifName: section
Width: 520
VWidth: 0
Flags: HMW
LayerCount: 2
Fore
SplineSet
260 378 m 1
 210 378 175 350 175 310 c 3
 175 210 420 240 420 90 c 3
 420 -15 330 -55 225 -55 c 3
 185 -55 140 -50 110 -35 c 1
 105 85 l 1
 155 90 l 1
 175 10 l 1
 195 -5 225 -10 255 -10 c 3
 300 -10 345 5 345 50 c 3
 345 155 105 120 105 275 c 3
 105 365 175 415 265 415 c 9
 260 378 l 1
255 230 m 1
 300 230 345 250 345 295 c 3
 345 400 105 365 105 520 c 3
 105 610 175 660 265 660 c 3
 320 660 375 650 405 635 c 1
 405 520 l 1
 355 515 l 1
 340 590 l 1
 325 605 295 618 255 618 c 3
 210 618 175 595 175 555 c 3
 175 455 420 485 420 335 c 3
 420 230 330 190 225 190 c 9
 255 230 l 1
EndSplineSet
Validated: 5
EndChar

StartChar: copyright
Encoding: 169 169 174
GlifName: copyright
Width: 800
VWidth: 0
Flags: HMW
LayerCount: 2
Fore
SplineSet
400 610 m 7
 239 610 115 486 115 325 c 7
 115 164 239 40 400 40 c 7
 561 40 685 164 685 325 c 7
 685 486 561 610 400 610 c 7
400 660 m 7
 590 660 735 515 735 325 c 7
 735 135 590 -10 400 -10 c 7
 210 -10 65 135 65 325 c 7
 65 515 210 660 400 660 c 7
440 187 m 7
 465 187 480 190 495 195 c 5
 504 265 l 5
 545 260 l 5
 540 155 l 5
 500 145 480 140 430 140 c 7
 280 140 220 200 220 320 c 7
 220 440 290 510 420 510 c 7
 470 510 500 505 540 495 c 5
 540 390 l 5
 500 387 l 5
 490 450 l 5
 470 460 455 463 420 463 c 7
 350 463 310 417 310 332 c 7
 310 232 350 187 440 187 c 7
EndSplineSet
Validated: 1
EndChar

StartChar: ordfeminine
Encoding: 170 170 175
GlifName: ordfeminine
Width: 355
VWidth: 0
Flags: HMW
LayerCount: 2
Fore
SplineSet
177 637 m 7
 247 637 288 602 288 512 c 6
 288 407 l 21
 299 357 l 5
 345 346 l 29
 345 326 l 5
 216 301 l 29
 222 369 l 5
 218 433 l 13
 218 505 l 6
 218 559 192 583 146 583 c 7
 113 583 85 565 70 550 c 5
 54 563 l 5
 74 598 106 637 177 637 c 7
218 490 m 13
 218 455 l 21
 142 455 112 440 112 399 c 7
 112 370 130 357 156 357 c 7
 180 357 218 383 218 433 c 5
 222 369 l 5
 208 334 172 301 126 301 c 7
 67 301 35 334 35 383 c 7
 35 444 80 490 218 490 c 13
EndSplineSet
Validated: 5
EndChar

StartChar: logicalnot
Encoding: 172 172 177
GlifName: logicalnot
Width: 540
VWidth: 0
Flags: MW
LayerCount: 2
Fore
SplineSet
440 320 m 1
 490 370 l 1
 490 130 l 1
 440 130 l 1
 440 320 l 1
50 370 m 1
 490 370 l 1
 440 320 l 1
 50 320 l 1
 50 370 l 1
EndSplineSet
Validated: 5
EndChar

StartChar: registered
Encoding: 174 174 179
GlifName: registered
Width: 800
VWidth: 0
Flags: HMW
LayerCount: 2
Fore
SplineSet
400 610 m 3
 239 610 115 486 115 325 c 3
 115 164 239 40 400 40 c 3
 561 40 685 164 685 325 c 3
 685 486 561 610 400 610 c 3
400 660 m 3
 590 660 735 515 735 325 c 3
 735 135 590 -10 400 -10 c 3
 210 -10 65 135 65 325 c 3
 65 515 210 660 400 660 c 3
220 500 m 17
 405 500 l 2
 515 500 555 475 555 405 c 7
 555 355 515 325 465 315 c 5
 515 250 l 5
 569 190 l 5
 610 170 l 29
 610 150 l 5
 484 150 l 25
 440 230 l 1
 380 325 l 1
 450 325 470 360 470 400 c 3
 470 440 450 460 385 460 c 2
 360 460 l 1
 360 250 l 1
 375 190 l 1
 415 170 l 25
 415 150 l 25
 215 150 l 25
 215 170 l 25
 270 190 l 25
 285 250 l 1
 285 400 l 1
 270 460 l 25
 220 480 l 1
 220 500 l 17
EndSplineSet
Validated: 1
EndChar

StartChar: plusminus
Encoding: 177 177 181
GlifName: plusminus
Width: 600
VWidth: 0
Flags: MW
LayerCount: 2
Fore
SplineSet
50 50 m 5
 550 50 l 5
 550 0 l 5
 50 0 l 5
 50 50 l 5
50 370 m 5
 550 370 l 5
 550 320 l 5
 50 320 l 5
 50 370 l 5
275 595 m 5
 325 595 l 5
 325 95 l 5
 275 95 l 5
 275 595 l 5
EndSplineSet
Validated: 5
EndChar

StartChar: mu
Encoding: 181 181 185
GlifName: mu
Width: 545
VWidth: 0
Flags: HMW
LayerCount: 2
Fore
SplineSet
370 105 m 1
 370 140 l 1
 365 335 l 1
 353 400 l 1
 290 425 l 25
 290 445 l 1
 465 453 l 25
 450 340 l 1
 450 125 l 1
 462 60 l 1
 530 45 l 25
 530 25 l 1
 362 -10 l 1
 370 105 l 1
85 335 m 9
 73 400 l 1
 5 426 l 25
 5 446 l 1
 180 454 l 25
 168 340 l 9
 168 190 l 2
 168 93 197 63 260 63 c 3
 316 63 345 98 370 140 c 1
 370 105 l 1
 337 43 308 -10 219 -10 c 3
 180.573535247 -10 155 15 140 40 c 9
 150 -65 l 1
 195 -190 l 29
 70 -220 l 17
 85 0 l 1
 85 335 l 9
EndSplineSet
Validated: 5
EndChar

StartChar: paragraph
Encoding: 182 182 186
GlifName: paragraph
Width: 520
VWidth: 0
Flags: HMW
LayerCount: 2
Fore
SplineSet
355 630 m 9
 490 630 l 1
 490 608 l 25
 420 583 l 25
 405 503 l 1
 405 0 l 1
 355 0 l 1
 355 630 l 9
250 630 m 2
 300 630 l 1
 300 0 l 1
 250 0 l 1
 250 250 l 1
 100 250 25 320 25 440 c 3
 25 560 100 630 250 630 c 2
EndSplineSet
Validated: 1
EndChar

StartChar: ordmasculine
Encoding: 186 186 190
GlifName: ordmasculine
Width: 390
VWidth: 0
Flags: HMW
LayerCount: 2
Fore
SplineSet
190 598 m 3
 140 598 117 553 117 474 c 3
 117 388 140 340 200 340 c 3
 250 340 273 385 273 464 c 3
 273 550 250 598 190 598 c 3
197 301 m 3
 91 301 35 367 35 465 c 3
 35 563 99 637 193 637 c 3
 299 637 355 571 355 473 c 3
 355 375 291 301 197 301 c 3
EndSplineSet
Validated: 1
EndChar

StartChar: OE
Encoding: 338 338 192
GlifName: O_E_
Width: 900
VWidth: 0
Flags: HMW
AnchorPoint: "top" 350 650 basechar 0
AnchorPoint: "bottom" 500 0 basechar 0
LayerCount: 2
Fore
SplineSet
535 350 m 1
 610 350 l 1
 690 360 l 1
 705 440 l 1
 737 440 l 1
 737 220 l 1
 705 220 l 1
 690 300 l 1
 610 310 l 25
 535 310 l 1
 535 350 l 1
345 610 m 27
 215 610 150 497 150 332 c 3
 150 152 225 40 375 40 c 11
 445 40 l 1
 445 610 l 1
 345 610 l 27
350 650 m 19
 828 650 l 9
 835 506 l 1
 795 502 l 1
 772 595 l 1
 692 610 l 25
 535 610 l 1
 535 55 l 1
 615 40 l 1
 712 40 l 1
 792 55 l 1
 817 148 l 1
 858 143 l 1
 848 0 l 25
 360 0 l 3
 150 0 45 120 45 320 c 3
 45 520 175 650 350 650 c 19
EndSplineSet
Validated: 5
EndChar

StartChar: oe
Encoding: 339 339 193
GlifName: oe
Width: 770
VWidth: 0
Flags: HMW
AnchorPoint: "top" 415 450 basechar 0
AnchorPoint: "bottom" 411 0 basechar 0
LayerCount: 2
Fore
SplineSet
562 460 m 7
 676 460 730 389 730 287 c 1
 728 258 l 1
 464 258 l 1
 464 293 l 1
 567 293 l 1
 637 303 l 1
 637 374 623 417 555 417 c 3
 486 417 465 343 465 279 c 3
 465 129 507 54 601 54 c 3
 639 54 693 65 721 91 c 1
 735 78 l 1
 696 21 644 -10 568 -10 c 7
 441 -10 380 83 380 220 c 3
 380 357 440 460 562 460 c 7
240 415 m 3
 166 415 135 343 135 232 c 3
 135 111 173 35 260 35 c 3
 334 35 365 109 365 220 c 3
 365 341 327 415 240 415 c 3
253 -10 m 3
 110 -10 35 83 35 220 c 3
 35 357 120 460 247 460 c 3
 390 460 460 367 460 230 c 3
 460 93 380 -10 253 -10 c 3
EndSplineSet
Validated: 5
EndChar

StartChar: at
Encoding: 64 64 196
GlifName: at
Width: 930
VWidth: 0
Flags: HMW
LayerCount: 2
Back
SplineSet
562 130 m 1
 588 287 l 1
 612 373 l 1
 529 350 l 1
 490 211 414 89 376 89 c 3
 352 89 340 119 340 170 c 3
 340 264 396 370 474 370 c 3
 501 370 517 363 529 350 c 1
 612 373 l 1
 596 385 533 400 474 400 c 3
 341 400 260 260 260 150 c 3
 260 79 290 30 345 30 c 3
 416 30 481 154 516 248 c 1
 494 146 l 1
 474 56 490 30 540 30 c 7
 645 30 765 140 765 290 c 7
 765 425 665 535 485 535 c 7
 285 535 125 380 125 180 c 7
 125 -40 285 -130 450 -130 c 7
 530 -130 610 -100 665 -60 c 5
 650 -35 l 5
 590 -75 525 -90 460 -90 c 7
 325 -90 185 -15 185 185 c 7
 185 375 315 500 465 500 c 7
 615 500 715 417 715 270 c 7
 715 159 642 81 586 81 c 7
 567 81 557 100 562 130 c 1
EndSplineSet
Fore
SplineSet
550 0 m 9
 555 95 l 1
 550 170 l 9
 550 265 l 2
 550 348 515 382 450 382 c 3
 402 382 371 361 342 333 c 1
 326 346 l 1
 348 397 400 450 480 450 c 3
 585 450 635 410 635 280 c 2
 635 125 l 17
 650 55 l 1
 706 55 810 114 810 280 c 3
 810 467 690 600 480 600 c 3
 290 600 125 440 125 205 c 3
 125 -35 284 -165 479 -165 c 3
 609 -165 695 -120 760 -65 c 1
 780 -90 l 1
 720 -145 614 -210 464 -210 c 3
 239 -210 60 -70 60 190 c 3
 60 440 255 640 500 640 c 3
 750 640 870 485 870 300 c 3
 870 90 725 0 550 0 c 9
550 248 m 9
 550 213 l 17
 420 213 395 185 395 132 c 3
 395 89 417 65 457 65 c 3
 497 65 550 93 550 170 c 1
 555 95 l 1
 535 46 487 0 422 0 c 3
 344 0 300 46 300 110 c 3
 300 190 362 248 550 248 c 9
EndSplineSet
Validated: 5
EndChar

StartChar: tildecomb
Encoding: 771 771 198
GlifName: tildecomb
Width: 0
VWidth: 0
Flags: HMW
AnchorPoint: "top" -290 450 mark 0
LayerCount: 2
Fore
SplineSet
-345 680 m 7
 -290 680 -260 635 -210 635 c 7
 -185 635 -160 640 -125 670 c 5
 -105 645 l 5
 -170 580 -205 565 -240 565 c 7
 -295 565 -325 610 -375 610 c 7
 -400 610 -425 605 -460 575 c 5
 -480 600 l 5
 -415 665 -380 680 -345 680 c 7
EndSplineSet
Validated: 1
Colour: ff4c99
EndChar

StartChar: circumflexcomb
Encoding: 770 770 199
GlifName: uni0302
Width: 0
VWidth: 0
Flags: MW
AnchorPoint: "top" -240 450 mark 0
LayerCount: 2
Fore
SplineSet
-240 700 m 5
 -80 560 l 5
 -105 530 l 5
 -240 605 l 5
 -375 530 l 5
 -400 560 l 5
 -240 700 l 5
EndSplineSet
Validated: 1
Colour: ff4c99
EndChar

StartChar: gravecomb
Encoding: 768 768 200
GlifName: gravecomb
Width: 0
VWidth: 0
Flags: MW
AnchorPoint: "top" -205 450 mark 0
LayerCount: 2
Fore
SplineSet
-330 700 m 1
 -105 570 l 1
 -120 535 l 1
 -360 620 l 1
 -330 700 l 1
EndSplineSet
Validated: 1
Colour: ff4c99
EndChar

StartChar: acutecomb
Encoding: 769 769 201
GlifName: acutecomb
Width: 0
VWidth: 0
Flags: MW
AnchorPoint: "top" -250 450 mark 0
LayerCount: 2
Fore
SplineSet
-130 700 m 5
 -100 620 l 5
 -340 535 l 5
 -355 570 l 5
 -130 700 l 5
EndSplineSet
Validated: 1
Colour: ff4c99
EndChar

StartChar: dotlessi
Encoding: 305 305 202
GlifName: dotlessi
Width: 275
VWidth: 0
Flags: MW
AnchorPoint: "bottom" 142 0 basechar 0
AnchorPoint: "top" 135 450 basechar 0
LayerCount: 2
Fore
SplineSet
195 455 m 25
 185 335 l 1
 185 115 l 1
 200 45 l 25
 260 20 l 25
 260 0 l 25
 20 0 l 25
 20 20 l 25
 85 45 l 25
 100 115 l 25
 100 330 l 25
 85 400 l 1
 30 425 l 25
 30 445 l 1
 195 455 l 25
EndSplineSet
Validated: 1
EndChar

StartChar: diaeresiscomb
Encoding: 776 776 203
GlifName: uni0308
Width: 0
VWidth: 0
Flags: MW
AnchorPoint: "top" -195 450 mark 0
LayerCount: 2
Fore
SplineSet
-155 620 m 3
 -155 655 -130 680 -95 680 c 3
 -60 680 -35 655 -35 620 c 3
 -35 585 -60 560 -95 560 c 3
 -130 560 -155 585 -155 620 c 3
-360 620 m 3
 -360 655 -335 680 -300 680 c 3
 -265 680 -240 655 -240 620 c 3
 -240 585 -265 560 -300 560 c 3
 -335 560 -360 585 -360 620 c 3
EndSplineSet
Validated: 1
Colour: ff4c99
EndChar

StartChar: macroncomb
Encoding: 772 772 204
GlifName: uni0304
Width: 0
VWidth: 0
Flags: HMW
AnchorPoint: "top" -215 450 mark 0
LayerCount: 2
Fore
SplineSet
-360 650 m 1
 -80 650 l 1
 -80 595 l 1
 -360 595 l 1
 -360 650 l 1
EndSplineSet
Validated: 1
Colour: ff4c99
EndChar

StartChar: brevecomb
Encoding: 774 774 205
GlifName: uni0306
Width: 0
VWidth: 0
Flags: HMW
AnchorPoint: "top" -240 450 mark 0
LayerCount: 2
Fore
SplineSet
-344 690 m 1
 -334 650 -300 615 -240 615 c 3
 -181 615 -146 650 -136 690 c 1
 -105 680 l 1
 -110 615 -156 550 -240 550 c 3
 -325 550 -370 615 -375 680 c 1
 -344 690 l 1
EndSplineSet
Validated: 1
Colour: ff4c99
EndChar

StartChar: dotcomb
Encoding: 775 775 206
GlifName: uni0307
Width: 0
VWidth: 0
Flags: HMW
AnchorPoint: "top" -195 450 mark 0
LayerCount: 2
Fore
SplineSet
-255 620 m 3
 -255 655 -230 680 -195 680 c 3
 -160 680 -135 655 -135 620 c 3
 -135 585 -160 560 -195 560 c 3
 -230 560 -255 585 -255 620 c 3
EndSplineSet
Validated: 1
Colour: ff4c99
EndChar

StartChar: ringcomb
Encoding: 778 778 207
GlifName: uni030A_
Width: 0
VWidth: 0
Flags: HMW
AnchorPoint: "top" -180 450 mark 0
LayerCount: 2
Fore
SplineSet
-180 715 m 3
 -215 715 -240 690 -240 640 c 3
 -240 585 -215 555 -180 555 c 3
 -145 555 -120 580 -120 630 c 3
 -120 685 -145 715 -180 715 c 3
-180 520 m 3
 -255 520 -300 565 -300 635 c 3
 -300 700 -250 750 -180 750 c 3
 -105 750 -60 705 -60 635 c 3
 -60 570 -110 520 -180 520 c 3
EndSplineSet
Validated: 1
Colour: ff4c99
EndChar

StartChar: doubleacutecomb
Encoding: 779 779 208
GlifName: uni030B_
Width: 0
VWidth: 0
Flags: HMW
AnchorPoint: "top" -250 450 mark 0
LayerCount: 2
Back
SplineSet
-130 700 m 5
 -100 620 l 5
 -340 535 l 5
 -355 570 l 5
 -130 700 l 5
EndSplineSet
Fore
SplineSet
-135 730 m 1
 -65 690 l 1
 -195 500 l 1
 -230 515 l 1
 -135 730 l 1
-290 730 m 5
 -215 695 l 5
 -325 500 l 5
 -360 515 l 5
 -290 730 l 5
EndSplineSet
Validated: 1
Colour: ff4c99
EndChar

StartChar: highcommacomb
Encoding: 789 789 210
GlifName: uni0315
Width: 0
VWidth: 0
Flags: HMW
AnchorPoint: "top" 0 670 mark 0
LayerCount: 2
Fore
SplineSet
155 680 m 1
 240 650 l 1
 155 495 l 1
 120 505 l 1
 155 680 l 1
EndSplineSet
Validated: 1
Colour: ff4c99
EndChar

StartChar: cedillacomb
Encoding: 807 807 211
GlifName: uni0327
Width: 0
VWidth: 0
Flags: HMW
AnchorPoint: "bottom" -165 0 mark 0
LayerCount: 2
Fore
SplineSet
-170 16 m 1
 -141 0 l 1
 -180 -55 l 1
 -110 -65 -90 -90 -90 -130 c 3
 -90 -180 -160 -225 -230 -230 c 1
 -235 -205 l 1
 -185 -200 -160 -170 -160 -150 c 3
 -160 -125 -170 -110 -225 -100 c 1
 -250 -95 l 1
 -170 16 l 1
EndSplineSet
Validated: 1
Colour: ff4c99
EndChar

StartChar: brokenbar
Encoding: 166 166 243
GlifName: brokenbar
Width: 250
VWidth: 0
Flags: HMW
LayerCount: 2
Fore
SplineSet
100 130 m 1
 150 130 l 1
 150 -210 l 1
 100 -210 l 1
 100 130 l 1
100 790 m 1
 150 790 l 1
 150 450 l 1
 100 450 l 1
 100 790 l 1
EndSplineSet
Validated: 1
EndChar

StartChar: currency
Encoding: 164 164 244
GlifName: currency
Width: 520
VWidth: 0
Flags: HMW
LayerCount: 2
Fore
SplineSet
398 378 m 1
 363 413 l 1
 450 521 l 1
 506 465 l 1
 398 378 l 1
70 69 m 1
 14 125 l 1
 122 212 l 1
 157 177 l 1
 70 69 l 1
363 177 m 1
 398 212 l 1
 506 125 l 1
 450 69 l 1
 363 177 l 1
14 465 m 1
 70 521 l 1
 157 413 l 1
 122 378 l 1
 14 465 l 1
260 410 m 3
 210 410 180 370 180 295 c 3
 180 220 210 180 260 180 c 3
 310 180 340 220 340 295 c 3
 340 370 310 410 260 410 c 3
260 140 m 3
 165 140 95 190 95 290 c 3
 95 390 165 450 260 450 c 3
 355 450 425 400 425 300 c 3
 425 200 355 140 260 140 c 3
EndSplineSet
Validated: 5
EndChar

StartChar: Aogonek
Encoding: 260 260 251
GlifName: A_ogonek
Width: 660
VWidth: 0
Flags: HMW
LayerCount: 2
Fore
SplineSet
181 275 m 1
 444 275 l 1
 444 235 l 1
 181 235 l 1
 181 275 l 1
296 660 m 17
 366 660 l 1
 560 127 l 1
 600 47 l 1
 660 22 l 1
 660 0 l 21
 500 0 425 -50 425 -95 c 7
 425 -135 450 -160 495 -160 c 7
 520 -160 547 -155 562 -150 c 5
 570 -165 l 5
 545 -195 500 -220 445 -220 c 7
 380 -220 345 -190 345 -135 c 7
 345 -90 395 -40 470 0 c 13
 482 47 l 25
 462 127 l 25
 307 564 l 1
 157 127 l 1
 144 47 l 25
 208 22 l 25
 208 0 l 25
 0 0 l 25
 0 22 l 25
 64 47 l 25
 107 127 l 1
 296 660 l 17
EndSplineSet
Validated: 5
EndChar

StartChar: aogonek
Encoding: 261 261 252
GlifName: aogonek
Width: 465
VWidth: 0
Flags: HMW
LayerCount: 2
Fore
SplineSet
220 460 m 3
 325 460 375 420 375 290 c 2
 375 130 l 17
 390 60 l 1
 455 45 l 25
 455 25 l 1
 287 -10 l 25
 295 85 l 1
 290 160 l 9
 290 275 l 2
 290 358 255 392 190 392 c 3
 137 392 106 371 77 343 c 1
 61 356 l 1
 83 407 135 460 220 460 c 3
325 -160 m 3
 350 -160 377 -155 392 -150 c 1
 400 -165 l 1
 375 -190 330 -220 275 -220 c 3
 210 -220 175 -190 175 -135 c 3
 175 -85 237 -35 287 -10 c 5
 455 25 l 1
 335 -5 255 -50 255 -105 c 3
 255 -140 280 -160 325 -160 c 3
290 248 m 9
 290 213 l 17
 155 213 130 185 130 127 c 3
 130 79 153 54 197 54 c 3
 237 54 290 83 290 160 c 1
 295 85 l 1
 275 36 227 -10 162 -10 c 3
 79 -10 35 36 35 105 c 3
 35 190 97 248 290 248 c 9
EndSplineSet
Validated: 5
EndChar

StartChar: dcroat
Encoding: 273 273 255
GlifName: dcroat
Width: 535
VWidth: 0
Flags: HMW
LayerCount: 2
Fore
SplineSet
125 227 m 3
 125 115 174 58 245 58 c 3
 302 58 329 86 355 119 c 1
 360 84 l 1
 336 36 298 -10 203 -10 c 3
 105 -10 35 66 35 205 c 3
 35 342 111 455 247 455 c 3
 297 455 333 444 360 429 c 9
 355 380 l 17
 332 399 302 410 265 410 c 3
 187 410 125 367 125 227 c 3
440 560 m 9
 440 130 l 1
 455 60 l 1
 520 45 l 25
 520 25 l 1
 352 -10 l 25
 360 84 l 1
 355 119 l 1
 355 380 l 1
 360 429 l 1
 360 555 l 1
 340 625 l 1
 285 640 l 25
 285 660 l 1
 450 680 l 1
 440 560 l 9
254 555 m 1
 495 555 l 1
 495 505 l 1
 215 505 l 1
 215 520 l 1
 254 555 l 1
EndSplineSet
Validated: 5
EndChar

StartChar: Eogonek
Encoding: 280 280 257
GlifName: E_ogonek
Width: 575
VWidth: 0
Flags: HMW
LayerCount: 2
Fore
SplineSet
390 0 m 9
 523 0 l 17
 423 0 345 -50 345 -95 c 3
 345 -135 370 -160 415 -160 c 3
 440 -160 467 -155 482 -150 c 1
 490 -165 l 1
 465 -195 420 -220 365 -220 c 3
 300 -220 265 -190 265 -135 c 3
 265 -90 315 -40 390 0 c 9
EndSplineSet
Refer: 39 69 N 1 0 0 1 0 0 2
Validated: 5
EndChar

StartChar: eogonek
Encoding: 281 281 258
GlifName: eogonek
Width: 440
VWidth: 0
Flags: HMW
LayerCount: 2
Fore
SplineSet
232 460 m 3
 347 460 400 389 400 287 c 1
 398 258 l 1
 130 258 l 1
 130 293 l 1
 237 293 l 1
 307 303 l 1
 307 374 293 417 225 417 c 3
 156 417 130 344 130 279 c 3
 130 129 176 54 271 54 c 3
 314 54 358 75 386 91 c 1
 400 65 l 1
 238 -10 l 3
 101 -10 35 83 35 220 c 3
 35 357 105 460 232 460 c 3
310 -160 m 3
 335 -160 362 -155 377 -150 c 1
 385 -165 l 1
 360 -195 315 -220 260 -220 c 3
 195 -220 160 -190 160 -135 c 3
 160 -90 203 -30 238 -10 c 9
 400 65 l 17
 320 10 240 -20 240 -95 c 3
 240 -135 265 -160 310 -160 c 3
EndSplineSet
Validated: 5
EndChar

StartChar: Iogonek
Encoding: 302 302 263
GlifName: I_ogonek
Width: 330
VWidth: 0
Flags: HMW
LayerCount: 2
Fore
SplineSet
200 -160 m 3
 225 -160 252 -155 267 -150 c 1
 275 -165 l 1
 250 -190 205 -220 150 -220 c 3
 85 -220 50 -190 50 -135 c 3
 50 -85 95 -40 145 -15 c 1
 300 0 l 1
 200 -20 130 -50 130 -105 c 3
 130 -140 155 -160 200 -160 c 3
35 650 m 29
 295 650 l 25
 295 628 l 25
 225 603 l 25
 210 523 l 17
 210 127 l 1
 225 47 l 25
 300 22 l 25
 300 0 l 17
 145 -15 l 25
 100 30 l 1
 120 127 l 17
 120 523 l 17
 105 603 l 25
 35 628 l 25
 35 650 l 29
EndSplineSet
Validated: 5
EndChar

StartChar: iogonek
Encoding: 303 303 264
GlifName: iogonek
Width: 275
VWidth: 0
Flags: HMW
LayerCount: 2
Fore
SplineSet
175 -160 m 7
 200 -160 227 -155 242 -150 c 5
 250 -165 l 5
 225 -190 180 -220 125 -220 c 7
 60 -220 25 -190 25 -135 c 7
 25 -85 70 -40 120 -15 c 5
 260 0 l 5
 160 -20 105 -50 105 -105 c 7
 105 -140 130 -160 175 -160 c 7
120 -15 m 29
 85 30 l 5
 100 115 l 29
 100 330 l 25
 85 400 l 1
 30 425 l 25
 30 445 l 1
 195 455 l 25
 185 335 l 1
 185 115 l 5
 200 45 l 29
 260 20 l 29
 260 0 l 5
 120 -15 l 29
70 620 m 3
 70 655 95 680 130 680 c 3
 165 680 190 655 190 620 c 3
 190 585 165 560 130 560 c 3
 95 560 70 585 70 620 c 3
EndSplineSet
Validated: 5
EndChar

StartChar: Lslash
Encoding: 321 321 274
GlifName: L_slash
Width: 540
VWidth: 0
Flags: HMW
LayerCount: 2
Fore
SplineSet
30 275 m 1
 163 345 l 1
 345 460 l 1
 370 415 l 1
 177 311 l 1
 55 231 l 1
 30 275 l 1
EndSplineSet
Refer: 43 76 N 1 0 0 1 0 0 2
Validated: 5
EndChar

StartChar: lslash
Encoding: 322 322 275
GlifName: lslash
Width: 310
VWidth: 0
Flags: HMW
LayerCount: 2
Fore
SplineSet
15 310 m 1
 148 380 l 1
 270 460 l 1
 295 416 l 1
 162 346 l 1
 40 266 l 1
 15 310 l 1
EndSplineSet
Refer: 8 108 N 1 0 0 1 15 0 2
Validated: 5
EndChar

StartChar: Uogonek
Encoding: 370 370 293
GlifName: U_ogonek
Width: 690
VWidth: 0
Flags: HMW
LayerCount: 2
Fore
SplineSet
410 -160 m 3
 435 -160 462 -155 477 -150 c 1
 485 -165 l 1
 460 -195 415 -220 360 -220 c 3
 295 -220 260 -190 260 -135 c 3
 260 -90 310 -20 385 20 c 1
 400 0 l 1
 380 -15 340 -50 340 -95 c 3
 340 -135 365 -160 410 -160 c 3
EndSplineSet
Refer: 37 85 N 1 0 0 1 0 0 2
Validated: 5
EndChar

StartChar: uogonek
Encoding: 371 371 294
GlifName: uogonek
Width: 545
VWidth: 0
Flags: HMW
LayerCount: 2
Fore
SplineSet
400 -160 m 3
 425 -160 452 -155 467 -150 c 1
 475 -165 l 1
 450 -190 405 -220 350 -220 c 3
 285 -220 250 -190 250 -135 c 3
 250 -85 312 -35 362 -10 c 1
 530 25 l 1
 410 -5 330 -50 330 -105 c 3
 330 -140 355 -160 400 -160 c 3
EndSplineSet
Refer: 20 117 N 1 0 0 1 0 0 2
Validated: 5
EndChar

StartChar: florin
Encoding: 402 402 297
GlifName: florin
Width: 330
VWidth: 0
Flags: HMW
LayerCount: 2
Fore
SplineSet
180 10 m 3
 180 -95 120 -220 -7 -220 c 3
 -38 -220 -55 -216 -75 -208 c 9
 -51 -119 l 21
 -30 -131 -7 -140 28 -140 c 3
 76 -140 103 -123 103 -91 c 3
 103 -56 95 -23 95 20 c 27
 95 460 l 3
 95 565 155 690 282 690 c 3
 313 690 330 686 350 678 c 9
 326 589 l 17
 305 601 282 610 247 610 c 3
 199 610 172 593 172 561 c 3
 172 526 180 493 180 450 c 3
 180 10 l 3
300 450 m 1
 300 400 l 1
 10 400 l 1
 10 415 l 1
 50 450 l 1
 300 450 l 1
EndSplineSet
Validated: 5
EndChar

StartChar: commacomb
Encoding: 806 806 313
GlifName: commacomb
Width: 0
VWidth: 0
Flags: HMW
AnchorPoint: "bottom" -165 0 mark 0
LayerCount: 2
Fore
SplineSet
-185 -50 m 5
 -100 -85 l 5
 -210 -230 l 5
 -245 -215 l 5
 -185 -50 l 5
EndSplineSet
Validated: 1
Colour: ff4c99
EndChar

StartChar: ogonekcomb
Encoding: 808 808 314
GlifName: ogonekcomb
Width: 0
VWidth: 0
Flags: HMW
AnchorPoint: "bottom" -165 0 mark 0
LayerCount: 2
Fore
SplineSet
-130 -160 m 7
 -105 -160 -78 -155 -63 -150 c 5
 -55 -165 l 5
 -80 -195 -125 -220 -180 -220 c 7
 -245 -220 -280 -190 -280 -135 c 7
 -280 -90 -230 -20 -155 20 c 5
 -140 0 l 5
 -160 -15 -200 -50 -200 -95 c 7
 -200 -135 -175 -160 -130 -160 c 7
EndSplineSet
Validated: 1
Colour: ff4c99
EndChar

StartChar: uni200C
Encoding: 8204 8204 330
GlifName: uni200C_
Width: 0
Flags: HMW
LayerCount: 2
Fore
SplineSet
-12 -286 m 1
 -38 -286 l 1
 -38 742 l 1
 -12 742 l 1
 -12 -286 l 1
EndSplineSet
Validated: 1
EndChar

StartChar: uni200D
Encoding: 8205 8205 331
GlifName: uni200D_
Width: 0
Flags: HMW
LayerCount: 2
Fore
SplineSet
-31 605 m 1
 -56 630 l 1
 -56 -252 l 1
 -83 -252 l 1
 -83 630 l 1
 -107 605 l 1
 -126 624 l 1
 -88 662 l 1
 -126 701 l 1
 -107 719 l 1
 -69 681 l 1
 -31 719 l 1
 -13 701 l 1
 -51 662 l 1
 -13 624 l 1
 -31 605 l 1
EndSplineSet
Validated: 1
EndChar

StartChar: figuredash
Encoding: 8210 8210 334
GlifName: figuredash
Width: 520
VWidth: 0
Flags: HMW
LayerCount: 2
Fore
SplineSet
0 275 m 1
 520 275 l 1
 520 225 l 1
 0 225 l 1
 0 275 l 1
EndSplineSet
Validated: 1
EndChar

StartChar: dagger
Encoding: 8224 8224 337
GlifName: dagger
Width: 600
VWidth: 0
Flags: HMW
LayerCount: 2
Fore
SplineSet
100 425 m 1
 100 475 l 1
 500 475 l 1
 500 425 l 1
 100 425 l 1
275 650 m 1
 325 650 l 1
 325 0 l 1
 275 0 l 1
 275 650 l 1
EndSplineSet
Validated: 5
EndChar

StartChar: daggerdbl
Encoding: 8225 8225 338
GlifName: daggerdbl
Width: 600
VWidth: 0
Flags: HMW
LayerCount: 2
Fore
SplineSet
100 175 m 1
 100 225 l 1
 500 225 l 1
 500 175 l 1
 100 175 l 1
100 425 m 1
 100 475 l 1
 500 475 l 1
 500 425 l 1
 100 425 l 1
275 650 m 1
 325 650 l 1
 325 0 l 1
 275 0 l 1
 275 650 l 1
EndSplineSet
Validated: 5
EndChar

StartChar: bullet
Encoding: 8226 8226 339
GlifName: bullet
Width: 300
VWidth: 0
Flags: HMW
LayerCount: 2
Fore
SplineSet
50 250 m 3
 50 305 95 350 150 350 c 3
 205 350 250 305 250 250 c 3
 250 195 205 150 150 150 c 3
 95 150 50 195 50 250 c 3
EndSplineSet
Validated: 1
EndChar

StartChar: perthousand
Encoding: 8240 8240 341
GlifName: perthousand
Width: 1300
VWidth: 0
Flags: HMW
LayerCount: 2
Fore
SplineSet
1080 315 m 3
 1020 315 985 265 985 180 c 3
 985 90 1020 35 1085 35 c 3
 1145 35 1180 85 1180 170 c 3
 1180 260 1145 315 1080 315 c 3
1085 -10 m 3
 975 -10 915 60 915 170 c 3
 915 280 980 360 1080 360 c 3
 1190 360 1250 290 1250 180 c 3
 1250 70 1185 -10 1085 -10 c 3
EndSplineSet
Refer: 91 37 N 1 0 0 1 0 0 2
Validated: 1
EndChar

StartChar: guilsinglleft
Encoding: 8249 8249 342
GlifName: guilsinglleft
Width: 310
VWidth: 0
Flags: HMW
LayerCount: 2
Fore
SplineSet
55 245 m 1
 225 425 l 1
 255 400 l 1
 170 255 l 1
 255 100 l 1
 225 75 l 1
 55 245 l 1
EndSplineSet
Validated: 1
EndChar

StartChar: trademark
Encoding: 8482 8482 350
GlifName: trademark
Width: 1000
VWidth: 0
Flags: HMW
LayerCount: 2
Fore
SplineSet
425 650 m 1
 610 650 l 1
 635 550 l 1
 683 415 l 1
 730 550 l 1
 755 650 l 1
 935 650 l 9
 935 630 l 1
 885 610 l 25
 870 550 l 1
 870 400 l 1
 885 340 l 25
 940 320 l 25
 940 300 l 25
 740 300 l 25
 740 320 l 25
 780 340 l 1
 795 400 l 1
 800 605 l 1
 727 410 l 1
 692 300 l 1
 645 300 l 1
 608 410 l 1
 540 590 l 1
 540 400 l 1
 555 340 l 1
 590 320 l 1
 590 300 l 17
 420 300 l 1
 420 320 l 1
 475 340 l 25
 490 400 l 1
 490 550 l 1
 475 610 l 25
 425 630 l 1
 425 650 l 1
57 650 m 1
 398 650 l 1
 400 525 l 1
 365 520 l 1
 347 595 l 1
 287 610 l 25
 265 610 l 1
 265 400 l 1
 280 340 l 1
 335 320 l 25
 335 300 l 25
 120 300 l 25
 120 320 l 25
 175 340 l 25
 190 400 l 1
 190 610 l 1
 168 610 l 1
 108 595 l 1
 90 520 l 1
 55 525 l 1
 57 650 l 1
EndSplineSet
Validated: 1
EndChar

StartChar: estimated
Encoding: 8494 8494 352
GlifName: estimated
Width: 510
Flags: HMW
LayerCount: 2
Fore
SplineSet
113 243 m 1
 397 243 l 1
 397 346 l 2
 397 364 336 421 256 421 c 3
 174 421 113 362 113 343 c 2
 113 243 l 1
255 450 m 3
 363 450 480 364 480 215 c 1
 113 215 l 1
 113 113 l 2
 113 90 174 29 256 29 c 3
 314 29 365 53 400 98 c 1
 434 87 l 1
 393 35 328 0 255 0 c 3
 131 0 30 100 30 225 c 3
 30 349 131 450 255 450 c 3
EndSplineSet
Validated: 1
EndChar

StartChar: integral
Encoding: 8747 8747 361
GlifName: integral
Width: 280
VWidth: 0
Flags: HMW
LayerCount: 2
Fore
SplineSet
180 40 m 2
 180 -153 104 -220 21 -220 c 3
 -5 -220 -20 -216 -40 -210 c 9
 -19 -122 l 17
 7 -131 38 -137 64 -137 c 3
 89 -137 107 -124 107 -90 c 3
 107 -60 95 33 95 80 c 2
 95 530 l 2
 95 723 171 790 254 790 c 3
 280 790 295 786 315 780 c 9
 294 692 l 17
 268 701 237 707 211 707 c 3
 186 707 168 694 168 660 c 3
 168 630 180 537 180 490 c 2
 180 40 l 2
EndSplineSet
Validated: 1
EndChar

StartChar: approxequal
Encoding: 8776 8776 362
GlifName: approxequal
Width: 540
VWidth: 0
Flags: HMW
LayerCount: 2
Back
SplineSet
50 370 m 1
 490 370 l 1
 490 320 l 1
 50 320 l 1
 50 370 l 1
50 180 m 1
 490 180 l 1
 490 130 l 1
 50 130 l 1
 50 180 l 1
EndSplineSet
Fore
SplineSet
185 225 m 3
 250 225 310 150 365 150 c 3
 400 150 430 180 465 220 c 1
 495 190 l 1
 440 125 400 95 355 95 c 3
 290 95 230 170 175 170 c 3
 140 170 110 140 75 100 c 1
 45 130 l 1
 100 195 140 225 185 225 c 3
185 405 m 3
 250 405 310 330 365 330 c 3
 400 330 430 360 465 400 c 1
 495 370 l 1
 440 305 400 275 355 275 c 3
 290 275 230 350 175 350 c 3
 140 350 110 320 75 280 c 1
 45 310 l 1
 100 375 140 405 185 405 c 3
EndSplineSet
Validated: 1
EndChar

StartChar: notequal
Encoding: 8800 8800 363
GlifName: notequal
Width: 540
VWidth: 0
Flags: HMW
LayerCount: 2
Fore
SplineSet
154 5 m 1
 339 512 l 1
 386 495 l 1
 201 -12 l 1
 154 5 l 1
EndSplineSet
Refer: 85 61 N 1 0 0 1 0 0 2
Validated: 5
EndChar

StartChar: lessequal
Encoding: 8804 8804 364
GlifName: lessequal
Width: 500
VWidth: 0
Flags: HMW
LayerCount: 2
Fore
SplineSet
100 50 m 5
 400 50 l 5
 400 0 l 5
 100 0 l 5
 100 50 l 5
EndSplineSet
Refer: 81 60 S 1 0 0 1 0 95 2
Validated: 1
EndChar

StartChar: greaterequal
Encoding: 8805 8805 365
GlifName: greaterequal
Width: 500
VWidth: 0
Flags: HMW
LayerCount: 2
Fore
SplineSet
100 50 m 1
 400 50 l 1
 400 0 l 1
 100 0 l 1
 100 50 l 1
EndSplineSet
Refer: 81 60 N -1 0 0 -1 475 595 2
Validated: 1
EndChar

StartChar: lozenge
Encoding: 9674 9674 366
GlifName: lozenge
Width: 500
VWidth: 0
Flags: HMW
LayerCount: 2
Back
SplineSet
95 325 m 5
 250 635 l 5
 405 325 l 5
 250 15 l 5
 95 325 l 5
EndSplineSet
Fore
SplineSet
250 579 m 1
 123 325 l 1
 250 71 l 1
 377 325 l 1
 250 579 l 1
230 650 m 1
 270 650 l 1
 433 325 l 1
 270 0 l 1
 230 0 l 1
 67 325 l 1
 230 650 l 1
EndSplineSet
Validated: 1
EndChar

StartChar: uni25CC
Encoding: 9676 9676 367
GlifName: uni25C_C_
Width: 500
VWidth: 0
Flags: HMW
LayerCount: 2
Fore
SplineSet
203 46 m 1
 218 42 234 40 250 40 c 3
 266 40 282 42 297 46 c 1
 316 -1 l 1
 295 -7 273 -10 250 -10 c 3
 227 -10 205 -7 184 -1 c 1
 203 46 l 1
157 65 m 1
 137 19 l 1
 97 41 66 72 44 112 c 1
 90 132 l 1
 106 105 130 81 157 65 c 1
71 178 m 1
 24 159 l 1
 18 180 15 202 15 225 c 3
 15 248 18 270 24 291 c 1
 71 272 l 1
 67 257 65 241 65 225 c 3
 65 209 67 193 71 178 c 1
429 178 m 1
 433 193 435 209 435 225 c 3
 435 241 433 257 429 272 c 1
 476 291 l 1
 482 270 485 248 485 225 c 3
 485 202 482 180 476 159 c 1
 429 178 l 1
410 132 m 1
 456 112 l 1
 434 72 403 41 363 19 c 1
 343 65 l 1
 370 81 394 105 410 132 c 1
297 404 m 1
 282 408 266 410 250 410 c 3
 234 410 218 408 203 404 c 1
 184 451 l 1
 205 457 227 460 250 460 c 3
 273 460 295 457 316 451 c 1
 297 404 l 1
343 385 m 1
 363 431 l 1
 403 409 434 378 456 338 c 1
 410 318 l 1
 394 345 370 369 343 385 c 1
90 318 m 1
 44 338 l 1
 66 378 97 409 137 431 c 1
 157 385 l 1
 130 369 106 345 90 318 c 1
EndSplineSet
Validated: 1
EndChar

StartChar: circle
Encoding: 9675 9675 368
GlifName: circle
Width: 500
VWidth: 0
Flags: HMW
LayerCount: 2
Fore
SplineSet
65 225 m 7
 65 123 148 40 250 40 c 7
 352 40 435 123 435 225 c 7
 435 327 352 410 250 410 c 7
 148 410 65 327 65 225 c 7
15 225 m 7
 15 355 120 460 250 460 c 7
 380 460 485 355 485 225 c 7
 485 95 380 -10 250 -10 c 7
 120 -10 15 95 15 225 c 7
EndSplineSet
Validated: 1
EndChar

StartChar: fl
Encoding: 64258 64258 371
GlifName: uniF_B_02
Width: 580
VWidth: 0
Flags: HMW
LayerCount: 2
Fore
SplineSet
50 450 m 1
 180 450 l 1
 300 450 l 1
 300 400 l 1
 10 400 l 1
 10 415 l 1
 50 450 l 1
405 595 m 17
 365 615 325 625 265 625 c 3
 200 625 177 588 177 556 c 3
 177 521 180 493 180 450 c 0
 180 115 l 1
 195 45 l 25
 255 20 l 25
 255 0 l 25
 20 0 l 25
 20 20 l 25
 80 45 l 25
 95 115 l 1
 95 450 l 3
 95 565 165 690 325 690 c 3
 405 690 450 675 500 650 c 1
 490 560 l 1
 490 115 l 1
 505 45 l 25
 565 20 l 25
 565 0 l 25
 330 0 l 25
 330 20 l 25
 390 45 l 25
 405 115 l 1
 405 595 l 17
EndSplineSet
Validated: 5
LCarets2: 1 0
Ligature2: "'liga' Standard Ligatures lookup 0-1" f l
EndChar

StartChar: kreska
Encoding: 65537 -1 374
GlifName: kreska
Width: 0
VWidth: 0
Flags: MW
HStem: 500 230
VStem: -297 145
AnchorPoint: "top" -250 450 mark 0
LayerCount: 2
Fore
SplineSet
-227 730 m 1
 -152 695 l 1
 -262 500 l 1
 -297 515 l 1
 -227 730 l 1
EndSplineSet
Validated: 1
EndChar

StartChar: longs
Encoding: 383 383 380
GlifName: longs
Width: 310
VWidth: 0
Flags: HMW
LayerCount: 2
Fore
SplineSet
237 610 m 3
 189 610 162 593 162 561 c 3
 162 526 170 493 170 450 c 0
 170 115 l 1
 185 45 l 25
 265 20 l 25
 265 0 l 25
 10 0 l 25
 10 20 l 25
 70 45 l 25
 85 115 l 1
 85 460 l 3
 85 565 145 690 272 690 c 3
 303 690 320 686 340 678 c 9
 316 589 l 17
 295 601 272 610 237 610 c 3
EndSplineSet
Validated: 1
EndChar

StartChar: asciitilde
Encoding: 126 126 381
GlifName: asciitilde
Width: 500
VWidth: 0
Flags: HMW
LayerCount: 2
Fore
SplineSet
180 320 m 7
 245 320 285 250 345 250 c 7
 380 250 405 270 440 310 c 5
 465 285 l 5
 410 220 365 185 320 185 c 7
 255 185 215 255 155 255 c 7
 120 255 95 235 60 195 c 5
 35 220 l 5
 90 285 135 320 180 320 c 7
EndSplineSet
Validated: 1
EndChar
